<?xml version="1.0" standalone="no"?><!DOCTYPE svg PUBLIC "-//W3C//DTD SVG 1.1//EN" "http://www.w3.org/Graphics/SVG/1.1/DTD/svg11.dtd"><svg class="first" width="600" height="300" version="1.1" xmlns="http://www.w3.org/2000/svg" xmlns:xlink="http://www.w3.org/1999/xlink"><defs xmlns="http://www.w3.org/1999/xhtml"><style type="text/css"><![CDATA[
body { padding: 0px; margin: 0px; }]]></style></defs><rect x="0" y="0" width="600" height="600" fill="rgb(80, 80, 80)" stroke="none"/><g transform="translate(30 30)"><g><rect x="36" y="36" width="36" height="36" fill="rgb(0, 250, 0)" stroke="none" stroke-width="2"/><rect x="36" y="72" width="36" height="36" fill="rgb(0, 247, 0)" stroke="none" stroke-width="2"/><rect x="36" y="108" width="36" height="36" fill="rgb(0, 248, 0)" stroke="none" stroke-width="2"/><rect x="36" y="144" width="36" height="36" fill="rgb(0, 248, 0)" stroke="none" stroke-width="2"/><rect x="36" y="180" width="36" height="36" fill="rgb(0, 244, 0)" stroke="none" stroke-width="2"/><rect x="36" y="216" width="36" height="36" fill="rgb(0, 243, 0)" stroke="none" stroke-width="2"/><rect x="36" y="252" width="36" height="36" fill="rgb(0, 242, 32)" stroke="none" stroke-width="2"/><rect x="36" y="288" width="36" height="36" fill="rgb(0, 238, 60)" stroke="none" stroke-width="2"/><rect x="36" y="324" width="36" height="36" fill="rgb(0, 237, 77)" stroke="none" stroke-width="2"/><rect x="36" y="360" width="36" height="36" fill="rgb(0, 236, 91)" stroke="none" stroke-width="2"/><rect x="36" y="396" width="36" height="36" fill="rgb(0, 232, 100)" stroke="none" stroke-width="2"/><rect x="36" y="432" width="36" height="36" fill="rgb(0, 232, 110)" stroke="none" stroke-width="2"/><rect x="36" y="468" width="36" height="36" fill="rgb(16, 231, 118)" stroke="none" stroke-width="2"/><rect x="72" y="36" width="36" height="36" fill="rgb(39, 227, 109)" stroke="none" stroke-width="2"/><rect x="72" y="72" width="36" height="36" fill="rgb(53, 226, 118)" stroke="none" stroke-width="2"/><rect x="72" y="108" width="36" height="36" fill="rgb(59, 223, 122)" stroke="none" stroke-width="2"/><rect x="72" y="144" width="36" height="36" fill="rgb(69, 222, 129)" stroke="none" stroke-width="2"/><rect x="72" y="180" width="36" height="36" fill="rgb(74, 221, 134)" stroke="none" stroke-width="2"/><rect x="72" y="216" width="36" height="36" fill="rgb(79, 217, 137)" stroke="none" stroke-width="2"/><rect x="72" y="252" width="36" height="36" fill="rgb(86, 216, 142)" stroke="none" stroke-width="2"/><rect x="72" y="288" width="36" height="36" fill="rgb(90, 216, 146)" stroke="none" stroke-width="2"/><rect x="72" y="324" width="36" height="36" fill="rgb(95, 212, 148)" stroke="none" stroke-width="2"/><rect x="72" y="360" width="36" height="36" fill="rgb(99, 211, 151)" stroke="none" stroke-width="2"/><rect x="72" y="396" width="36" height="36" fill="rgb(103, 210, 154)" stroke="none" stroke-width="2"/><rect x="72" y="432" width="36" height="36" fill="rgb(106, 207, 155)" stroke="none" stroke-width="2"/><rect x="72" y="468" width="36" height="36" fill="rgb(110, 206, 158)" stroke="none" stroke-width="2"/><rect x="108" y="36" width="36" height="36" fill="rgb(116, 205, 157)" stroke="none" stroke-width="2"/><rect x="108" y="72" width="36" height="36" fill="rgb(117, 202, 157)" stroke="none" stroke-width="2"/><rect x="108" y="108" width="36" height="36" fill="rgb(120, 201, 159)" stroke="none" stroke-width="2"/><rect x="108" y="144" width="36" height="36" fill="rgb(124, 200, 162)" stroke="none" stroke-width="2"/><rect x="108" y="180" width="36" height="36" fill="rgb(125, 197, 161)" stroke="none" stroke-width="2"/><rect x="108" y="216" width="36" height="36" fill="rgb(129, 196, 163)" stroke="none" stroke-width="2"/><rect x="108" y="252" width="36" height="36" fill="rgb(132, 195, 165)" stroke="none" stroke-width="2"/><rect x="108" y="288" width="36" height="36" fill="rgb(132, 192, 164)" stroke="none" stroke-width="2"/><rect x="108" y="324" width="36" height="36" fill="rgb(136, 191, 166)" stroke="none" stroke-width="2"/><rect x="108" y="360" width="36" height="36" fill="rgb(136, 187, 165)" stroke="none" stroke-width="2"/><rect x="108" y="396" width="36" height="36" fill="rgb(139, 187, 166)" stroke="none" stroke-width="2"/><rect x="108" y="432" width="36" height="36" fill="rgb(142, 186, 167)" stroke="none" stroke-width="2"/><rect x="108" y="468" width="36" height="36" fill="rgb(142, 183, 166)" stroke="none" stroke-width="2"/><rect x="144" y="36" width="36" height="36" fill="rgb(146, 182, 166)" stroke="none" stroke-width="2"/><rect x="144" y="72" width="36" height="36" fill="rgb(148, 181, 167)" stroke="none" stroke-width="2"/><rect x="144" y="108" width="36" height="36" fill="rgb(148, 178, 165)" stroke="none" stroke-width="2"/><rect x="144" y="144" width="36" height="36" fill="rgb(150, 177, 166)" stroke="none" stroke-width="2"/><rect x="144" y="180" width="36" height="36" fill="rgb(152, 177, 167)" stroke="none" stroke-width="2"/><rect x="144" y="216" width="36" height="36" fill="rgb(152, 173, 165)" stroke="none" stroke-width="2"/><rect x="144" y="252" width="36" height="36" fill="rgb(154, 173, 166)" stroke="none" stroke-width="2"/><rect x="144" y="288" width="36" height="36" fill="rgb(157, 172, 166)" stroke="none" stroke-width="2"/><rect x="144" y="324" width="36" height="36" fill="rgb(156, 169, 164)" stroke="none" stroke-width="2"/><rect x="144" y="360" width="36" height="36" fill="rgb(158, 168, 164)" stroke="none" stroke-width="2"/><rect x="144" y="396" width="36" height="36" fill="rgb(160, 167, 165)" stroke="none" stroke-width="2"/><rect x="144" y="432" width="36" height="36" fill="rgb(159, 164, 163)" stroke="none" stroke-width="2"/><rect x="144" y="468" width="36" height="36" fill="rgb(161, 163, 163)" stroke="none" stroke-width="2"/><rect x="180" y="36" width="36" height="36" fill="rgb(161, 160, 160)" stroke="none" stroke-width="2"/><rect x="180" y="72" width="36" height="36" fill="rgb(163, 160, 161)" stroke="none" stroke-width="2"/><rect x="180" y="108" width="36" height="36" fill="rgb(165, 159, 161)" stroke="none" stroke-width="2"/><rect x="180" y="144" width="36" height="36" fill="rgb(163, 156, 158)" stroke="none" stroke-width="2"/><rect x="180" y="180" width="36" height="36" fill="rgb(166, 155, 158)" stroke="none" stroke-width="2"/><rect x="180" y="216" width="36" height="36" fill="rgb(167, 155, 158)" stroke="none" stroke-width="2"/><rect x="180" y="252" width="36" height="36" fill="rgb(165, 152, 156)" stroke="none" stroke-width="2"/><rect x="180" y="288" width="36" height="36" fill="rgb(167, 151, 155)" stroke="none" stroke-width="2"/><rect x="180" y="324" width="36" height="36" fill="rgb(169, 151, 155)" stroke="none" stroke-width="2"/><rect x="180" y="360" width="36" height="36" fill="rgb(168, 147, 152)" stroke="none" stroke-width="2"/><rect x="180" y="396" width="36" height="36" fill="rgb(169, 147, 152)" stroke="none" stroke-width="2"/><rect x="180" y="432" width="36" height="36" fill="rgb(170, 147, 152)" stroke="none" stroke-width="2"/><rect x="180" y="468" width="36" height="36" fill="rgb(169, 144, 149)" stroke="none" stroke-width="2"/><rect x="216" y="36" width="36" height="36" fill="rgb(171, 143, 149)" stroke="none" stroke-width="2"/><rect x="216" y="72" width="36" height="36" fill="rgb(172, 142, 149)" stroke="none" stroke-width="2"/><rect x="216" y="108" width="36" height="36" fill="rgb(171, 139, 146)" stroke="none" stroke-width="2"/><rect x="216" y="144" width="36" height="36" fill="rgb(172, 139, 146)" stroke="none" stroke-width="2"/><rect x="216" y="180" width="36" height="36" fill="rgb(173, 138, 145)" stroke="none" stroke-width="2"/><rect x="216" y="216" width="36" height="36" fill="rgb(171, 136, 142)" stroke="none" stroke-width="2"/><rect x="216" y="252" width="36" height="36" fill="rgb(173, 135, 141)" stroke="none" stroke-width="2"/><rect x="216" y="288" width="36" height="36" fill="rgb(170, 132, 138)" stroke="none" stroke-width="2"/><rect x="216" y="324" width="36" height="36" fill="rgb(171, 132, 137)" stroke="none" stroke-width="2"/><rect x="216" y="360" width="36" height="36" fill="rgb(173, 132, 137)" stroke="none" stroke-width="2"/><rect x="216" y="396" width="36" height="36" fill="rgb(171, 129, 133)" stroke="none" stroke-width="2"/><rect x="216" y="432" width="36" height="36" fill="rgb(172, 128, 133)" stroke="none" stroke-width="2"/><rect x="216" y="468" width="36" height="36" fill="rgb(173, 128, 132)" stroke="none" stroke-width="2"/><rect x="252" y="36" width="36" height="36" fill="rgb(171, 125, 130)" stroke="none" stroke-width="2"/><rect x="252" y="72" width="36" height="36" fill="rgb(172, 124, 129)" stroke="none" stroke-width="2"/><rect x="252" y="108" width="36" height="36" fill="rgb(173, 124, 128)" stroke="none" stroke-width="2"/><rect x="252" y="144" width="36" height="36" fill="rgb(171, 121, 125)" stroke="none" stroke-width="2"/><rect x="252" y="180" width="36" height="36" fill="rgb(172, 121, 124)" stroke="none" stroke-width="2"/><rect x="252" y="216" width="36" height="36" fill="rgb(173, 121, 123)" stroke="none" stroke-width="2"/><rect x="252" y="252" width="36" height="36" fill="rgb(171, 118, 119)" stroke="none" stroke-width="2"/><rect x="252" y="288" width="36" height="36" fill="rgb(171, 118, 118)" stroke="none" stroke-width="2"/><rect x="252" y="324" width="36" height="36" fill="rgb(172, 118, 117)" stroke="none" stroke-width="2"/><rect x="252" y="360" width="36" height="36" fill="rgb(170, 115, 113)" stroke="none" stroke-width="2"/><rect x="252" y="396" width="36" height="36" fill="rgb(170, 115, 112)" stroke="none" stroke-width="2"/><rect x="252" y="432" width="36" height="36" fill="rgb(171, 115, 111)" stroke="none" stroke-width="2"/><rect x="252" y="468" width="36" height="36" fill="rgb(168, 112, 107)" stroke="none" stroke-width="2"/><rect x="288" y="36" width="36" height="36" fill="rgb(170, 111, 108)" stroke="none" stroke-width="2"/><rect x="288" y="72" width="36" height="36" fill="rgb(167, 109, 104)" stroke="none" stroke-width="2"/><rect x="288" y="108" width="36" height="36" fill="rgb(168, 109, 103)" stroke="none" stroke-width="2"/><rect x="288" y="144" width="36" height="36" fill="rgb(169, 108, 101)" stroke="none" stroke-width="2"/><rect x="288" y="180" width="36" height="36" fill="rgb(166, 106, 98)" stroke="none" stroke-width="2"/><rect x="288" y="216" width="36" height="36" fill="rgb(167, 106, 96)" stroke="none" stroke-width="2"/><rect x="288" y="252" width="36" height="36" fill="rgb(167, 106, 94)" stroke="none" stroke-width="2"/><rect x="288" y="288" width="36" height="36" fill="rgb(164, 103, 90)" stroke="none" stroke-width="2"/><rect x="288" y="324" width="36" height="36" fill="rgb(165, 103, 88)" stroke="none" stroke-width="2"/><rect x="288" y="360" width="36" height="36" fill="rgb(165, 103, 86)" stroke="none" stroke-width="2"/><rect x="288" y="396" width="36" height="36" fill="rgb(163, 101, 82)" stroke="none" stroke-width="2"/><rect x="288" y="432" width="36" height="36" fill="rgb(163, 101, 80)" stroke="none" stroke-width="2"/><rect x="288" y="468" width="36" height="36" fill="rgb(163, 100, 78)" stroke="none" stroke-width="2"/><rect x="324" y="36" width="36" height="36" fill="rgb(162, 97, 78)" stroke="none" stroke-width="2"/><rect x="324" y="72" width="36" height="36" fill="rgb(162, 97, 75)" stroke="none" stroke-width="2"/><rect x="324" y="108" width="36" height="36" fill="rgb(163, 97, 73)" stroke="none" stroke-width="2"/><rect x="324" y="144" width="36" height="36" fill="rgb(159, 95, 69)" stroke="none" stroke-width="2"/><rect x="324" y="180" width="36" height="36" fill="rgb(160, 95, 66)" stroke="none" stroke-width="2"/><rect x="324" y="216" width="36" height="36" fill="rgb(160, 95, 63)" stroke="none" stroke-width="2"/><rect x="324" y="252" width="36" height="36" fill="rgb(157, 93, 58)" stroke="none" stroke-width="2"/><rect x="324" y="288" width="36" height="36" fill="rgb(157, 93, 54)" stroke="none" stroke-width="2"/><rect x="324" y="324" width="36" height="36" fill="rgb(154, 91, 49)" stroke="none" stroke-width="2"/><rect x="324" y="360" width="36" height="36" fill="rgb(154, 91, 45)" stroke="none" stroke-width="2"/><rect x="324" y="396" width="36" height="36" fill="rgb(155, 91, 40)" stroke="none" stroke-width="2"/><rect x="324" y="432" width="36" height="36" fill="rgb(152, 89, 34)" stroke="none" stroke-width="2"/><rect x="324" y="468" width="36" height="36" fill="rgb(152, 89, 27)" stroke="none" stroke-width="2"/><rect x="360" y="36" width="36" height="36" fill="rgb(153, 88, 33)" stroke="none" stroke-width="2"/><rect x="360" y="72" width="36" height="36" fill="rgb(150, 86, 25)" stroke="none" stroke-width="2"/><rect x="360" y="108" width="36" height="36" fill="rgb(150, 86, 15)" stroke="none" stroke-width="2"/><rect x="360" y="144" width="36" height="36" fill="rgb(150, 86, 2)" stroke="none" stroke-width="2"/><rect x="360" y="180" width="36" height="36" fill="rgb(147, 84, 0)" stroke="none" stroke-width="2"/><rect x="360" y="216" width="36" height="36" fill="rgb(147, 84, 0)" stroke="none" stroke-width="2"/><rect x="360" y="252" width="36" height="36" fill="rgb(147, 84, 0)" stroke="none" stroke-width="2"/><rect x="360" y="288" width="36" height="36" fill="rgb(144, 82, 0)" stroke="none" stroke-width="2"/><rect x="360" y="324" width="36" height="36" fill="rgb(144, 82, 0)" stroke="none" stroke-width="2"/><rect x="360" y="360" width="36" height="36" fill="rgb(144, 83, 0)" stroke="none" stroke-width="2"/><rect x="360" y="396" width="36" height="36" fill="rgb(141, 81, 0)" stroke="none" stroke-width="2"/><rect x="360" y="432" width="36" height="36" fill="rgb(141, 81, 0)" stroke="none" stroke-width="2"/><rect x="360" y="468" width="36" height="36" fill="rgb(141, 81, 0)" stroke="none" stroke-width="2"/><rect x="396" y="36" width="36" height="36" fill="rgb(138, 78, 0)" stroke="none" stroke-width="2"/><rect x="396" y="72" width="36" height="36" fill="rgb(139, 78, 0)" stroke="none" stroke-width="2"/><rect x="396" y="108" width="36" height="36" fill="rgb(135, 76, 0)" stroke="none" stroke-width="2"/><rect x="396" y="144" width="36" height="36" fill="rgb(135, 77, 0)" stroke="none" stroke-width="2"/><rect x="396" y="180" width="36" height="36" fill="rgb(135, 77, 0)" stroke="none" stroke-width="2"/><rect x="396" y="216" width="36" height="36" fill="rgb(131, 75, 0)" stroke="none" stroke-width="2"/><rect x="396" y="252" width="36" height="36" fill="rgb(131, 75, 0)" stroke="none" stroke-width="2"/><rect x="396" y="288" width="36" height="36" fill="rgb(131, 76, 0)" stroke="none" stroke-width="2"/><rect x="396" y="324" width="36" height="36" fill="rgb(128, 74, 0)" stroke="none" stroke-width="2"/><rect x="396" y="360" width="36" height="36" fill="rgb(127, 74, 0)" stroke="none" stroke-width="2"/><rect x="396" y="396" width="36" height="36" fill="rgb(127, 75, 0)" stroke="none" stroke-width="2"/><rect x="396" y="432" width="36" height="36" fill="rgb(124, 73, 0)" stroke="none" stroke-width="2"/><rect x="396" y="468" width="36" height="36" fill="rgb(123, 73, 0)" stroke="none" stroke-width="2"/><rect x="432" y="36" width="36" height="36" fill="rgb(125, 72, 0)" stroke="none" stroke-width="2"/><rect x="432" y="72" width="36" height="36" fill="rgb(121, 71, 0)" stroke="none" stroke-width="2"/><rect x="432" y="108" width="36" height="36" fill="rgb(121, 71, 0)" stroke="none" stroke-width="2"/><rect x="432" y="144" width="36" height="36" fill="rgb(121, 71, 0)" stroke="none" stroke-width="2"/><rect x="432" y="180" width="36" height="36" fill="rgb(117, 70, 0)" stroke="none" stroke-width="2"/><rect x="432" y="216" width="36" height="36" fill="rgb(117, 70, 0)" stroke="none" stroke-width="2"/><rect x="432" y="252" width="36" height="36" fill="rgb(116, 70, 0)" stroke="none" stroke-width="2"/><rect x="432" y="288" width="36" height="36" fill="rgb(113, 69, 0)" stroke="none" stroke-width="2"/><rect x="432" y="324" width="36" height="36" fill="rgb(112, 69, 0)" stroke="none" stroke-width="2"/><rect x="432" y="360" width="36" height="36" fill="rgb(109, 68, 0)" stroke="none" stroke-width="2"/><rect x="432" y="396" width="36" height="36" fill="rgb(108, 68, 0)" stroke="none" stroke-width="2"/><rect x="432" y="432" width="36" height="36" fill="rgb(108, 69, 0)" stroke="none" stroke-width="2"/><rect x="432" y="468" width="36" height="36" fill="rgb(104, 67, 0)" stroke="none" stroke-width="2"/><rect x="468" y="36" width="36" height="36" fill="rgb(105, 66, 0)" stroke="none" stroke-width="2"/><rect x="468" y="72" width="36" height="36" fill="rgb(105, 66, 0)" stroke="none" stroke-width="2"/><rect x="468" y="108" width="36" height="36" fill="rgb(101, 65, 0)" stroke="none" stroke-width="2"/><rect x="468" y="144" width="36" height="36" fill="rgb(101, 65, 0)" stroke="none" stroke-width="2"/><rect x="468" y="180" width="36" height="36" fill="rgb(100, 66, 0)" stroke="none" stroke-width="2"/><rect x="468" y="216" width="36" height="36" fill="rgb(96, 64, 0)" stroke="none" stroke-width="2"/><rect x="468" y="252" width="36" height="36" fill="rgb(96, 65, 0)" stroke="none" stroke-width="2"/><rect x="468" y="288" width="36" height="36" fill="rgb(95, 65, 0)" stroke="none" stroke-width="2"/><rect x="468" y="324" width="36" height="36" fill="rgb(91, 64, 0)" stroke="none" stroke-width="2"/><rect x="468" y="360" width="36" height="36" fill="rgb(90, 64, 0)" stroke="none" stroke-width="2"/><rect x="468" y="396" width="36" height="36" fill="rgb(89, 65, 0)" stroke="none" stroke-width="2"/><rect x="468" y="432" width="36" height="36" fill="rgb(85, 63, 0)" stroke="none" stroke-width="2"/><rect x="468" y="468" width="36" height="36" fill="rgb(84, 64, 0)" stroke="none" stroke-width="2"/><circle cx="36" cy="36" r="2.5000000000000004" fill="rgb(255, 255, 255)" stroke="none" stroke-width="2"/><circle cx="36" cy="36" r="2.5000000000000004" fill="rgb(255, 255, 255)" stroke="none" stroke-width="2"/><circle cx="36" cy="36" r="2.9000000000000004" fill="rgb(255, 255, 255)" stroke="none" stroke-width="2"/><circle cx="36" cy="36" r="2.9000000000000004" fill="rgb(255, 255, 255)" stroke="none" stroke-width="2"/></g><g transform="translate(36 0)"><circle cx="36" cy="36" r="2.5000000000000004" fill="rgb(255, 255, 255)" stroke="none" stroke-width="2"/><circle cx="36" cy="36" r="2.9000000000000004" fill="rgb(255, 255, 255)" stroke="none" stroke-width="2"/></g><g transform="translate(72 0)"><circle cx="36" cy="36" r="2.5000000000000004" fill="rgb(255, 255, 255)" stroke="none" stroke-width="2"/><circle cx="36" cy="36" r="2.9000000000000004" fill="rgb(255, 255, 255)" stroke="none" stroke-width="2"/></g><g transform="translate(108 0)"><circle cx="36" cy="36" r="2.5000000000000004" fill="rgb(255, 255, 255)" stroke="none" stroke-width="2"/><circle cx="36" cy="36" r="2.9000000000000004" fill="rgb(255, 255, 255)" stroke="none" stroke-width="2"/></g><g transform="translate(144 0)"><circle cx="36" cy="36" r="2.5000000000000004" fill="rgb(255, 255, 255)" stroke="none" stroke-width="2"/><circle cx="36" cy="36" r="2.9000000000000004" fill="rgb(255, 255, 255)" stroke="none" stroke-width="2"/></g><g transform="translate(180 0)"><circle cx="36" cy="36" r="2.5000000000000004" fill="rgb(255, 255, 255)" stroke="none" stroke-width="2"/><circle cx="36" cy="36" r="2.9000000000000004" fill="rgb(255, 255, 255)" stroke="none" stroke-width="2"/></g><g transform="translate(216 0)"><circle cx="36" cy="36" r="2.5000000000000004" fill="rgb(255, 255, 255)" stroke="none" stroke-width="2"/><circle cx="36" cy="36" r="2.9000000000000004" fill="rgb(255, 255, 255)" stroke="none" stroke-width="2"/></g><g transform="translate(252 0)"><circle cx="36" cy="36" r="2.5000000000000004" fill="rgb(255, 255, 255)" stroke="none" stroke-width="2"/><circle cx="36" cy="36" r="2.9000000000000004" fill="rgb(255, 255, 255)" stroke="none" stroke-width="2"/></g><g transform="translate(288 0)"><circle cx="36" cy="36" r="2.5000000000000004" fill="rgb(255, 255, 255)" stroke="none" stroke-width="2"/><circle cx="36" cy="36" r="2.9000000000000004" fill="rgb(255, 255, 255)" stroke="none" stroke-width="2"/></g><g transform="translate(324 0)"><circle cx="36" cy="36" r="2.5000000000000004" fill="rgb(255, 255, 255)" stroke="none" stroke-width="2"/><circle cx="36" cy="36" r="2.9000000000000004" fill="rgb(255, 255, 255)" stroke="none" stroke-width="2"/></g><g transform="translate(360 0)"><circle cx="36" cy="36" r="2.5000000000000004" fill="rgb(255, 255, 255)" stroke="none" stroke-width="2"/><circle cx="36" cy="36" r="2.9000000000000004" fill="rgb(255, 255, 255)" stroke="none" stroke-width="2"/></g><g transform="translate(396 0)"><circle cx="36" cy="36" r="2.5000000000000004" fill="rgb(255, 255, 255)" stroke="none" stroke-width="2"/><circle cx="36" cy="36" r="2.9000000000000004" fill="rgb(255, 255, 255)" stroke="none" stroke-width="2"/></g><g transform="translate(432 0)"><circle cx="36" cy="36" r="2.5000000000000004" fill="rgb(255, 255, 255)" stroke="none" stroke-width="2"/><circle cx="36" cy="36" r="2.9000000000000004" fill="rgb(255, 255, 255)" stroke="none" stroke-width="2"/></g><g transform="translate(468 0)"><circle cx="36" cy="36" r="2.5000000000000004" fill="rgb(255, 255, 255)" stroke="none" stroke-width="2"/><circle cx="36" cy="36" r="2.9000000000000004" fill="rgb(255, 255, 255)" stroke="none" stroke-width="2"/></g><g transform="translate(0 36)"><circle cx="36" cy="36" r="3.3000000000000007" fill="rgb(255, 255, 255)" stroke="none" stroke-width="2"/><circle cx="36" cy="36" r="3.3000000000000007" fill="rgb(255, 255, 255)" stroke="none" stroke-width="2"/></g><g transform="translate(36 36)"><circle cx="36" cy="36" r="3.3000000000000007" fill="rgb(255, 255, 255)" stroke="none" stroke-width="2"/></g><g transform="translate(72 36)"><circle cx="36" cy="36" r="3.3000000000000007" fill="rgb(255, 255, 255)" stroke="none" stroke-width="2"/></g><g transform="translate(108 36)"><circle cx="36" cy="36" r="3.3000000000000007" fill="rgb(255, 255, 255)" stroke="none" stroke-width="2"/></g><g transform="translate(144 36)"><circle cx="36" cy="36" r="3.3000000000000007" fill="rgb(255, 255, 255)" stroke="none" stroke-width="2"/></g><g transform="translate(180 36)"><circle cx="36" cy="36" r="3.3000000000000007" fill="rgb(255, 255, 255)" stroke="none" stroke-width="2"/></g><g transform="translate(216 36)"><circle cx="36" cy="36" r="3.3000000000000007" fill="rgb(255, 255, 255)" stroke="none" stroke-width="2"/></g><g transform="translate(252 36)"><circle cx="36" cy="36" r="3.3000000000000007" fill="rgb(255, 255, 255)" stroke="none" stroke-width="2"/></g><g transform="translate(288 36)"><circle cx="36" cy="36" r="3.3000000000000007" fill="rgb(255, 255, 255)" stroke="none" stroke-width="2"/></g><g transform="translate(324 36)"><circle cx="36" cy="36" r="3.3000000000000007" fill="rgb(255, 255, 255)" stroke="none" stroke-width="2"/></g><g transform="translate(360 36)"><circle cx="36" cy="36" r="3.3000000000000007" fill="rgb(255, 255, 255)" stroke="none" stroke-width="2"/></g><g transform="translate(396 36)"><circle cx="36" cy="36" r="3.3000000000000007" fill="rgb(255, 255, 255)" stroke="none" stroke-width="2"/></g><g transform="translate(432 36)"><circle cx="36" cy="36" r="3.3000000000000007" fill="rgb(255, 255, 255)" stroke="none" stroke-width="2"/></g><g transform="translate(468 36)"><circle cx="36" cy="36" r="3.3000000000000007" fill="rgb(255, 255, 255)" stroke="none" stroke-width="2"/></g><g transform="translate(0 72)"><circle cx="36" cy="36" r="3.7000000000000006" fill="rgb(255, 255, 255)" stroke="none" stroke-width="2"/><circle cx="36" cy="36" r="3.7000000000000006" fill="rgb(255, 255, 255)" stroke="none" stroke-width="2"/></g><g transform="translate(36 72)"><circle cx="36" cy="36" r="3.7000000000000006" fill="rgb(255, 255, 255)" stroke="none" stroke-width="2"/></g><g transform="translate(72 72)"><circle cx="36" cy="36" r="3.7000000000000006" fill="rgb(255, 255, 255)" stroke="none" stroke-width="2"/></g><g transform="translate(108 72)"><circle cx="36" cy="36" r="3.7000000000000006" fill="rgb(255, 255, 255)" stroke="none" stroke-width="2"/></g><g transform="translate(144 72)"><circle cx="36" cy="36" r="3.7000000000000006" fill="rgb(255, 255, 255)" stroke="none" stroke-width="2"/></g><g transform="translate(180 72)"><circle cx="36" cy="36" r="3.7000000000000006" fill="rgb(255, 255, 255)" stroke="none" stroke-width="2"/></g><g transform="translate(216 72)"><circle cx="36" cy="36" r="3.7000000000000006" fill="rgb(255, 255, 255)" stroke="none" stroke-width="2"/></g><g transform="translate(252 72)"><circle cx="36" cy="36" r="3.7000000000000006" fill="rgb(255, 255, 255)" stroke="none" stroke-width="2"/></g><g transform="translate(288 72)"><circle cx="36" cy="36" r="3.7000000000000006" fill="rgb(255, 255, 255)" stroke="none" stroke-width="2"/></g><g transform="translate(324 72)"><circle cx="36" cy="36" r="3.7000000000000006" fill="rgb(255, 255, 255)" stroke="none" stroke-width="2"/></g><g transform="translate(360 72)"><circle cx="36" cy="36" r="3.7000000000000006" fill="rgb(255, 255, 255)" stroke="none" stroke-width="2"/></g><g transform="translate(396 72)"><circle cx="36" cy="36" r="3.7000000000000006" fill="rgb(255, 255, 255)" stroke="none" stroke-width="2"/></g><g transform="translate(432 72)"><circle cx="36" cy="36" r="3.7000000000000006" fill="rgb(255, 255, 255)" stroke="none" stroke-width="2"/></g><g transform="translate(468 72)"><circle cx="36" cy="36" r="3.7000000000000006" fill="rgb(255, 255, 255)" stroke="none" stroke-width="2"/></g><g transform="translate(0 108)"><circle cx="36" cy="36" r="4.1000000000000005" fill="rgb(255, 255, 255)" stroke="none" stroke-width="2"/><circle cx="36" cy="36" r="4.1000000000000005" fill="rgb(255, 255, 255)" stroke="none" stroke-width="2"/></g><g transform="translate(36 108)"><circle cx="36" cy="36" r="4.1000000000000005" fill="rgb(255, 255, 255)" stroke="none" stroke-width="2"/></g><g transform="translate(72 108)"><circle cx="36" cy="36" r="4.1000000000000005" fill="rgb(255, 255, 255)" stroke="none" stroke-width="2"/></g><g transform="translate(108 108)"><circle cx="36" cy="36" r="4.1000000000000005" fill="rgb(255, 255, 255)" stroke="none" stroke-width="2"/></g><g transform="translate(144 108)"><circle cx="36" cy="36" r="4.1000000000000005" fill="rgb(255, 255, 255)" stroke="none" stroke-width="2"/></g><g transform="translate(180 108)"><circle cx="36" cy="36" r="4.1000000000000005" fill="rgb(255, 255, 255)" stroke="none" stroke-width="2"/></g><g transform="translate(216 108)"><circle cx="36" cy="36" r="4.1000000000000005" fill="rgb(255, 255, 255)" stroke="none" stroke-width="2"/></g><g transform="translate(252 108)"><circle cx="36" cy="36" r="4.1000000000000005" fill="rgb(255, 255, 255)" stroke="none" stroke-width="2"/></g><g transform="translate(288 108)"><circle cx="36" cy="36" r="4.1000000000000005" fill="rgb(255, 255, 255)" stroke="none" stroke-width="2"/></g><g transform="translate(324 108)"><circle cx="36" cy="36" r="4.1000000000000005" fill="rgb(255, 255, 255)" stroke="none" stroke-width="2"/></g><g transform="translate(360 108)"><circle cx="36" cy="36" r="4.1000000000000005" fill="rgb(255, 255, 255)" stroke="none" stroke-width="2"/></g><g transform="translate(396 108)"><circle cx="36" cy="36" r="4.1000000000000005" fill="rgb(255, 255, 255)" stroke="none" stroke-width="2"/></g><g transform="translate(432 108)"><circle cx="36" cy="36" r="4.1000000000000005" fill="rgb(255, 255, 255)" stroke="none" stroke-width="2"/></g><g transform="translate(468 108)"><circle cx="36" cy="36" r="4.1000000000000005" fill="rgb(255, 255, 255)" stroke="none" stroke-width="2"/></g><g transform="translate(0 144)"><circle cx="36" cy="36" r="4.500000000000001" fill="rgb(255, 255, 255)" stroke="none" stroke-width="2"/><circle cx="36" cy="36" r="4.500000000000001" fill="rgb(255, 255, 255)" stroke="none" stroke-width="2"/></g><g transform="translate(36 144)"><circle cx="36" cy="36" r="4.500000000000001" fill="rgb(255, 255, 255)" stroke="none" stroke-width="2"/></g><g transform="translate(72 144)"><circle cx="36" cy="36" r="4.500000000000001" fill="rgb(255, 255, 255)" stroke="none" stroke-width="2"/></g><g transform="translate(108 144)"><circle cx="36" cy="36" r="4.500000000000001" fill="rgb(255, 255, 255)" stroke="none" stroke-width="2"/></g><g transform="translate(144 144)"><circle cx="36" cy="36" r="4.500000000000001" fill="rgb(255, 255, 255)" stroke="none" stroke-width="2"/></g><g transform="translate(180 144)"><circle cx="36" cy="36" r="4.500000000000001" fill="rgb(255, 255, 255)" stroke="none" stroke-width="2"/></g><g transform="translate(216 144)"><circle cx="36" cy="36" r="4.500000000000001" fill="rgb(255, 255, 255)" stroke="none" stroke-width="2"/></g><g transform="translate(252 144)"><circle cx="36" cy="36" r="4.500000000000001" fill="rgb(255, 255, 255)" stroke="none" stroke-width="2"/></g><g transform="translate(288 144)"><circle cx="36" cy="36" r="4.500000000000001" fill="rgb(255, 255, 255)" stroke="none" stroke-width="2"/></g><g transform="translate(324 144)"><circle cx="36" cy="36" r="4.500000000000001" fill="rgb(255, 255, 255)" stroke="none" stroke-width="2"/></g><g transform="translate(360 144)"><circle cx="36" cy="36" r="4.500000000000001" fill="rgb(255, 255, 255)" stroke="none" stroke-width="2"/></g><g transform="translate(396 144)"><circle cx="36" cy="36" r="4.500000000000001" fill="rgb(255, 255, 255)" stroke="none" stroke-width="2"/></g><g transform="translate(432 144)"><circle cx="36" cy="36" r="4.500000000000001" fill="rgb(255, 255, 255)" stroke="none" stroke-width="2"/></g><g transform="translate(468 144)"><circle cx="36" cy="36" r="4.500000000000001" fill="rgb(255, 255, 255)" stroke="none" stroke-width="2"/></g><g transform="translate(0 180)"><circle cx="36" cy="36" r="4.900000000000001" fill="rgb(255, 255, 255)" stroke="none" stroke-width="2"/><circle cx="36" cy="36" r="4.900000000000001" fill="rgb(255, 255, 255)" stroke="none" stroke-width="2"/></g><g transform="translate(36 180)"><circle cx="36" cy="36" r="4.900000000000001" fill="rgb(255, 255, 255)" stroke="none" stroke-width="2"/></g><g transform="translate(72 180)"><circle cx="36" cy="36" r="4.900000000000001" fill="rgb(255, 255, 255)" stroke="none" stroke-width="2"/></g><g transform="translate(108 180)"><circle cx="36" cy="36" r="4.900000000000001" fill="rgb(255, 255, 255)" stroke="none" stroke-width="2"/></g><g transform="translate(144 180)"><circle cx="36" cy="36" r="4.900000000000001" fill="rgb(255, 255, 255)" stroke="none" stroke-width="2"/></g><g transform="translate(180 180)"><circle cx="36" cy="36" r="4.900000000000001" fill="rgb(255, 255, 255)" stroke="none" stroke-width="2"/></g><g transform="translate(216 180)"><circle cx="36" cy="36" r="4.900000000000001" fill="rgb(255, 255, 255)" stroke="none" stroke-width="2"/></g><g transform="translate(252 180)"><circle cx="36" cy="36" r="4.900000000000001" fill="rgb(255, 255, 255)" stroke="none" stroke-width="2"/></g><g transform="translate(288 180)"><circle cx="36" cy="36" r="4.900000000000001" fill="rgb(255, 255, 255)" stroke="none" stroke-width="2"/></g><g transform="translate(324 180)"><circle cx="36" cy="36" r="4.900000000000001" fill="rgb(255, 255, 255)" stroke="none" stroke-width="2"/></g><g transform="translate(360 180)"><circle cx="36" cy="36" r="4.900000000000001" fill="rgb(255, 255, 255)" stroke="none" stroke-width="2"/></g><g transform="translate(396 180)"><circle cx="36" cy="36" r="4.900000000000001" fill="rgb(255, 255, 255)" stroke="none" stroke-width="2"/></g><g transform="translate(432 180)"><circle cx="36" cy="36" r="4.900000000000001" fill="rgb(255, 255, 255)" stroke="none" stroke-width="2"/></g><g transform="translate(468 180)"><circle cx="36" cy="36" r="4.900000000000001" fill="rgb(255, 255, 255)" stroke="none" stroke-width="2"/></g><g transform="translate(0 216)"><circle cx="36" cy="36" r="5.300000000000002" fill="rgb(255, 255, 255)" stroke="none" stroke-width="2"/><circle cx="36" cy="36" r="5.300000000000002" fill="rgb(255, 255, 255)" stroke="none" stroke-width="2"/></g><g transform="translate(36 216)"><circle cx="36" cy="36" r="5.300000000000002" fill="rgb(255, 255, 255)" stroke="none" stroke-width="2"/></g><g transform="translate(72 216)"><circle cx="36" cy="36" r="5.300000000000002" fill="rgb(255, 255, 255)" stroke="none" stroke-width="2"/></g><g transform="translate(108 216)"><circle cx="36" cy="36" r="5.300000000000002" fill="rgb(255, 255, 255)" stroke="none" stroke-width="2"/></g><g transform="translate(144 216)"><circle cx="36" cy="36" r="5.300000000000002" fill="rgb(255, 255, 255)" stroke="none" stroke-width="2"/></g><g transform="translate(180 216)"><circle cx="36" cy="36" r="5.300000000000002" fill="rgb(255, 255, 255)" stroke="none" stroke-width="2"/></g><g transform="translate(216 216)"><circle cx="36" cy="36" r="5.300000000000002" fill="rgb(255, 255, 255)" stroke="none" stroke-width="2"/></g><g transform="translate(252 216)"><circle cx="36" cy="36" r="5.300000000000002" fill="rgb(255, 255, 255)" stroke="none" stroke-width="2"/></g><g transform="translate(288 216)"><circle cx="36" cy="36" r="5.300000000000002" fill="rgb(255, 255, 255)" stroke="none" stroke-width="2"/></g><g transform="translate(324 216)"><circle cx="36" cy="36" r="5.300000000000002" fill="rgb(255, 255, 255)" stroke="none" stroke-width="2"/></g><g transform="translate(360 216)"><circle cx="36" cy="36" r="5.300000000000002" fill="rgb(255, 255, 255)" stroke="none" stroke-width="2"/></g><g transform="translate(396 216)"><circle cx="36" cy="36" r="5.300000000000002" fill="rgb(255, 255, 255)" stroke="none" stroke-width="2"/></g><g transform="translate(432 216)"><circle cx="36" cy="36" r="5.300000000000002" fill="rgb(255, 255, 255)" stroke="none" stroke-width="2"/></g><g transform="translate(468 216)"><circle cx="36" cy="36" r="5.300000000000002" fill="rgb(255, 255, 255)" stroke="none" stroke-width="2"/></g><g transform="translate(0 252)"><circle cx="36" cy="36" r="5.700000000000002" fill="rgb(255, 255, 255)" stroke="none" stroke-width="2"/><circle cx="36" cy="36" r="5.700000000000002" fill="rgb(255, 255, 255)" stroke="none" stroke-width="2"/></g><g transform="translate(36 252)"><circle cx="36" cy="36" r="5.700000000000002" fill="rgb(255, 255, 255)" stroke="none" stroke-width="2"/></g><g transform="translate(72 252)"><circle cx="36" cy="36" r="5.700000000000002" fill="rgb(255, 255, 255)" stroke="none" stroke-width="2"/></g><g transform="translate(108 252)"><circle cx="36" cy="36" r="5.700000000000002" fill="rgb(255, 255, 255)" stroke="none" stroke-width="2"/></g><g transform="translate(144 252)"><circle cx="36" cy="36" r="5.700000000000002" fill="rgb(255, 255, 255)" stroke="none" stroke-width="2"/></g><g transform="translate(180 252)"><circle cx="36" cy="36" r="5.700000000000002" fill="rgb(255, 255, 255)" stroke="none" stroke-width="2"/></g><g transform="translate(216 252)"><circle cx="36" cy="36" r="5.700000000000002" fill="rgb(255, 255, 255)" stroke="none" stroke-width="2"/></g><g transform="translate(252 252)"><circle cx="36" cy="36" r="5.700000000000002" fill="rgb(255, 255, 255)" stroke="none" stroke-width="2"/></g><g transform="translate(288 252)"><circle cx="36" cy="36" r="5.700000000000002" fill="rgb(255, 255, 255)" stroke="none" stroke-width="2"/></g><g transform="translate(324 252)"><circle cx="36" cy="36" r="5.700000000000002" fill="rgb(255, 255, 255)" stroke="none" stroke-width="2"/></g><g transform="translate(360 252)"><circle cx="36" cy="36" r="5.700000000000002" fill="rgb(255, 255, 255)" stroke="none" stroke-width="2"/></g><g transform="translate(396 252)"><circle cx="36" cy="36" r="5.700000000000002" fill="rgb(255, 255, 255)" stroke="none" stroke-width="2"/></g><g transform="translate(432 252)"><circle cx="36" cy="36" r="5.700000000000002" fill="rgb(255, 255, 255)" stroke="none" stroke-width="2"/></g><g transform="translate(468 252)"><circle cx="36" cy="36" r="5.700000000000002" fill="rgb(255, 255, 255)" stroke="none" stroke-width="2"/></g><g transform="translate(0 288)"><circle cx="36" cy="36" r="6.100000000000003" fill="rgb(255, 255, 255)" stroke="none" stroke-width="2"/><circle cx="36" cy="36" r="6.100000000000003" fill="rgb(255, 255, 255)" stroke="none" stroke-width="2"/></g><g transform="translate(36 288)"><circle cx="36" cy="36" r="6.100000000000003" fill="rgb(255, 255, 255)" stroke="none" stroke-width="2"/></g><g transform="translate(72 288)"><circle cx="36" cy="36" r="6.100000000000003" fill="rgb(255, 255, 255)" stroke="none" stroke-width="2"/></g><g transform="translate(108 288)"><circle cx="36" cy="36" r="6.100000000000003" fill="rgb(255, 255, 255)" stroke="none" stroke-width="2"/></g><g transform="translate(144 288)"><circle cx="36" cy="36" r="6.100000000000003" fill="rgb(255, 255, 255)" stroke="none" stroke-width="2"/></g><g transform="translate(180 288)"><circle cx="36" cy="36" r="6.100000000000003" fill="rgb(255, 255, 255)" stroke="none" stroke-width="2"/></g><g transform="translate(216 288)"><circle cx="36" cy="36" r="6.100000000000003" fill="rgb(255, 255, 255)" stroke="none" stroke-width="2"/></g><g transform="translate(252 288)"><circle cx="36" cy="36" r="6.100000000000003" fill="rgb(255, 255, 255)" stroke="none" stroke-width="2"/></g><g transform="translate(288 288)"><circle cx="36" cy="36" r="6.100000000000003" fill="rgb(255, 255, 255)" stroke="none" stroke-width="2"/></g><g transform="translate(324 288)"><circle cx="36" cy="36" r="6.100000000000003" fill="rgb(255, 255, 255)" stroke="none" stroke-width="2"/></g><g transform="translate(360 288)"><circle cx="36" cy="36" r="6.100000000000003" fill="rgb(255, 255, 255)" stroke="none" stroke-width="2"/></g><g transform="translate(396 288)"><circle cx="36" cy="36" r="6.100000000000003" fill="rgb(255, 255, 255)" stroke="none" stroke-width="2"/></g><g transform="translate(432 288)"><circle cx="36" cy="36" r="6.100000000000003" fill="rgb(255, 255, 255)" stroke="none" stroke-width="2"/></g><g transform="translate(468 288)"><circle cx="36" cy="36" r="6.100000000000003" fill="rgb(255, 255, 255)" stroke="none" stroke-width="2"/></g><g transform="translate(0 324)"><circle cx="36" cy="36" r="6.5000000000000036" fill="rgb(255, 255, 255)" stroke="none" stroke-width="2"/><circle cx="36" cy="36" r="6.5000000000000036" fill="rgb(255, 255, 255)" stroke="none" stroke-width="2"/></g><g transform="translate(36 324)"><circle cx="36" cy="36" r="6.5000000000000036" fill="rgb(255, 255, 255)" stroke="none" stroke-width="2"/></g><g transform="translate(72 324)"><circle cx="36" cy="36" r="6.5000000000000036" fill="rgb(255, 255, 255)" stroke="none" stroke-width="2"/></g><g transform="translate(108 324)"><circle cx="36" cy="36" r="6.5000000000000036" fill="rgb(255, 255, 255)" stroke="none" stroke-width="2"/></g><g transform="translate(144 324)"><circle cx="36" cy="36" r="6.5000000000000036" fill="rgb(255, 255, 255)" stroke="none" stroke-width="2"/></g><g transform="translate(180 324)"><circle cx="36" cy="36" r="6.5000000000000036" fill="rgb(255, 255, 255)" stroke="none" stroke-width="2"/></g><g transform="translate(216 324)"><circle cx="36" cy="36" r="6.5000000000000036" fill="rgb(255, 255, 255)" stroke="none" stroke-width="2"/></g><g transform="translate(252 324)"><circle cx="36" cy="36" r="6.5000000000000036" fill="rgb(255, 255, 255)" stroke="none" stroke-width="2"/></g><g transform="translate(288 324)"><circle cx="36" cy="36" r="6.5000000000000036" fill="rgb(255, 255, 255)" stroke="none" stroke-width="2"/></g><g transform="translate(324 324)"><circle cx="36" cy="36" r="6.5000000000000036" fill="rgb(255, 255, 255)" stroke="none" stroke-width="2"/></g><g transform="translate(360 324)"><circle cx="36" cy="36" r="6.5000000000000036" fill="rgb(255, 255, 255)" stroke="none" stroke-width="2"/></g><g transform="translate(396 324)"><circle cx="36" cy="36" r="6.5000000000000036" fill="rgb(255, 255, 255)" stroke="none" stroke-width="2"/></g><g transform="translate(432 324)"><circle cx="36" cy="36" r="6.5000000000000036" fill="rgb(255, 255, 255)" stroke="none" stroke-width="2"/></g><g transform="translate(468 324)"><circle cx="36" cy="36" r="6.5000000000000036" fill="rgb(255, 255, 255)" stroke="none" stroke-width="2"/></g><g transform="translate(0 360)"><circle cx="36" cy="36" r="6.900000000000004" fill="rgb(255, 255, 255)" stroke="none" stroke-width="2"/><circle cx="36" cy="36" r="6.900000000000004" fill="rgb(255, 255, 255)" stroke="none" stroke-width="2"/></g><g transform="translate(36 360)"><circle cx="36" cy="36" r="6.900000000000004" fill="rgb(255, 255, 255)" stroke="none" stroke-width="2"/></g><g transform="translate(72 360)"><circle cx="36" cy="36" r="6.900000000000004" fill="rgb(255, 255, 255)" stroke="none" stroke-width="2"/></g><g transform="translate(108 360)"><circle cx="36" cy="36" r="6.900000000000004" fill="rgb(255, 255, 255)" stroke="none" stroke-width="2"/></g><g transform="translate(144 360)"><circle cx="36" cy="36" r="6.900000000000004" fill="rgb(255, 255, 255)" stroke="none" stroke-width="2"/></g><g transform="translate(180 360)"><circle cx="36" cy="36" r="6.900000000000004" fill="rgb(255, 255, 255)" stroke="none" stroke-width="2"/></g><g transform="translate(216 360)"><circle cx="36" cy="36" r="6.900000000000004" fill="rgb(255, 255, 255)" stroke="none" stroke-width="2"/></g><g transform="translate(252 360)"><circle cx="36" cy="36" r="6.900000000000004" fill="rgb(255, 255, 255)" stroke="none" stroke-width="2"/></g><g transform="translate(288 360)"><circle cx="36" cy="36" r="6.900000000000004" fill="rgb(255, 255, 255)" stroke="none" stroke-width="2"/></g><g transform="translate(324 360)"><circle cx="36" cy="36" r="6.900000000000004" fill="rgb(255, 255, 255)" stroke="none" stroke-width="2"/></g><g transform="translate(360 360)"><circle cx="36" cy="36" r="6.900000000000004" fill="rgb(255, 255, 255)" stroke="none" stroke-width="2"/></g><g transform="translate(396 360)"><circle cx="36" cy="36" r="6.900000000000004" fill="rgb(255, 255, 255)" stroke="none" stroke-width="2"/></g><g transform="translate(432 360)"><circle cx="36" cy="36" r="6.900000000000004" fill="rgb(255, 255, 255)" stroke="none" stroke-width="2"/></g><g transform="translate(468 360)"><circle cx="36" cy="36" r="6.900000000000004" fill="rgb(255, 255, 255)" stroke="none" stroke-width="2"/></g><g transform="translate(0 396)"><circle cx="36" cy="36" r="7.300000000000004" fill="rgb(255, 255, 255)" stroke="none" stroke-width="2"/><circle cx="36" cy="36" r="7.300000000000004" fill="rgb(255, 255, 255)" stroke="none" stroke-width="2"/></g><g transform="translate(36 396)"><circle cx="36" cy="36" r="7.300000000000004" fill="rgb(255, 255, 255)" stroke="none" stroke-width="2"/></g><g transform="translate(72 396)"><circle cx="36" cy="36" r="7.300000000000004" fill="rgb(255, 255, 255)" stroke="none" stroke-width="2"/></g><g transform="translate(108 396)"><circle cx="36" cy="36" r="7.300000000000004" fill="rgb(255, 255, 255)" stroke="none" stroke-width="2"/></g><g transform="translate(144 396)"><circle cx="36" cy="36" r="7.300000000000004" fill="rgb(255, 255, 255)" stroke="none" stroke-width="2"/></g><g transform="translate(180 396)"><circle cx="36" cy="36" r="7.300000000000004" fill="rgb(255, 255, 255)" stroke="none" stroke-width="2"/></g><g transform="translate(216 396)"><circle cx="36" cy="36" r="7.300000000000004" fill="rgb(255, 255, 255)" stroke="none" stroke-width="2"/></g><g transform="translate(252 396)"><circle cx="36" cy="36" r="7.300000000000004" fill="rgb(255, 255, 255)" stroke="none" stroke-width="2"/></g><g transform="translate(288 396)"><circle cx="36" cy="36" r="7.300000000000004" fill="rgb(255, 255, 255)" stroke="none" stroke-width="2"/></g><g transform="translate(324 396)"><circle cx="36" cy="36" r="7.300000000000004" fill="rgb(255, 255, 255)" stroke="none" stroke-width="2"/></g><g transform="translate(360 396)"><circle cx="36" cy="36" r="7.300000000000004" fill="rgb(255, 255, 255)" stroke="none" stroke-width="2"/></g><g transform="translate(396 396)"><circle cx="36" cy="36" r="7.300000000000004" fill="rgb(255, 255, 255)" stroke="none" stroke-width="2"/></g><g transform="translate(432 396)"><circle cx="36" cy="36" r="7.300000000000004" fill="rgb(255, 255, 255)" stroke="none" stroke-width="2"/></g><g transform="translate(468 396)"><circle cx="36" cy="36" r="7.300000000000004" fill="rgb(255, 255, 255)" stroke="none" stroke-width="2"/></g><g transform="translate(0 432)"><circle cx="36" cy="36" r="7.700000000000005" fill="rgb(255, 255, 255)" stroke="none" stroke-width="2"/><circle cx="36" cy="36" r="7.700000000000005" fill="rgb(255, 255, 255)" stroke="none" stroke-width="2"/></g><g transform="translate(36 432)"><circle cx="36" cy="36" r="7.700000000000005" fill="rgb(255, 255, 255)" stroke="none" stroke-width="2"/></g><g transform="translate(72 432)"><circle cx="36" cy="36" r="7.700000000000005" fill="rgb(255, 255, 255)" stroke="none" stroke-width="2"/></g><g transform="translate(108 432)"><circle cx="36" cy="36" r="7.700000000000005" fill="rgb(255, 255, 255)" stroke="none" stroke-width="2"/></g><g transform="translate(144 432)"><circle cx="36" cy="36" r="7.700000000000005" fill="rgb(255, 255, 255)" stroke="none" stroke-width="2"/></g><g transform="translate(180 432)"><circle cx="36" cy="36" r="7.700000000000005" fill="rgb(255, 255, 255)" stroke="none" stroke-width="2"/></g><g transform="translate(216 432)"><circle cx="36" cy="36" r="7.700000000000005" fill="rgb(255, 255, 255)" stroke="none" stroke-width="2"/></g><g transform="translate(252 432)"><circle cx="36" cy="36" r="7.700000000000005" fill="rgb(255, 255, 255)" stroke="none" stroke-width="2"/></g><g transform="translate(288 432)"><circle cx="36" cy="36" r="7.700000000000005" fill="rgb(255, 255, 255)" stroke="none" stroke-width="2"/></g><g transform="translate(324 432)"><circle cx="36" cy="36" r="7.700000000000005" fill="rgb(255, 255, 255)" stroke="none" stroke-width="2"/></g><g transform="translate(360 432)"><circle cx="36" cy="36" r="7.700000000000005" fill="rgb(255, 255, 255)" stroke="none" stroke-width="2"/></g><g transform="translate(396 432)"><circle cx="36" cy="36" r="7.700000000000005" fill="rgb(255, 255, 255)" stroke="none" stroke-width="2"/></g><g transform="translate(432 432)"><circle cx="36" cy="36" r="7.700000000000005" fill="rgb(255, 255, 255)" stroke="none" stroke-width="2"/></g><g transform="translate(468 432)"><circle cx="36" cy="36" r="7.700000000000005" fill="rgb(255, 255, 255)" stroke="none" stroke-width="2"/></g><g transform="translate(0 468)"><circle cx="36" cy="36" r="8.100000000000005" fill="rgb(255, 255, 255)" stroke="none" stroke-width="2"/><circle cx="36" cy="36" r="8.100000000000005" fill="rgb(255, 255, 255)" stroke="none" stroke-width="2"/></g><g transform="translate(36 468)"><circle cx="36" cy="36" r="8.100000000000005" fill="rgb(255, 255, 255)" stroke="none" stroke-width="2"/></g><g transform="translate(72 468)"><circle cx="36" cy="36" r="8.100000000000005" fill="rgb(255, 255, 255)" stroke="none" stroke-width="2"/></g><g transform="translate(108 468)"><circle cx="36" cy="36" r="8.100000000000005" fill="rgb(255, 255, 255)" stroke="none" stroke-width="2"/></g><g transform="translate(144 468)"><circle cx="36" cy="36" r="8.100000000000005" fill="rgb(255, 255, 255)" stroke="none" stroke-width="2"/></g><g transform="translate(180 468)"><circle cx="36" cy="36" r="8.100000000000005" fill="rgb(255, 255, 255)" stroke="none" stroke-width="2"/></g><g transform="translate(216 468)"><circle cx="36" cy="36" r="8.100000000000005" fill="rgb(255, 255, 255)" stroke="none" stroke-width="2"/></g><g transform="translate(252 468)"><circle cx="36" cy="36" r="8.100000000000005" fill="rgb(255, 255, 255)" stroke="none" stroke-width="2"/></g><g transform="translate(288 468)"><circle cx="36" cy="36" r="8.100000000000005" fill="rgb(255, 255, 255)" stroke="none" stroke-width="2"/></g><g transform="translate(324 468)"><circle cx="36" cy="36" r="8.100000000000005" fill="rgb(255, 255, 255)" stroke="none" stroke-width="2"/></g><g transform="translate(360 468)"><circle cx="36" cy="36" r="8.100000000000005" fill="rgb(255, 255, 255)" stroke="none" stroke-width="2"/></g><g transform="translate(396 468)"><circle cx="36" cy="36" r="8.100000000000005" fill="rgb(255, 255, 255)" stroke="none" stroke-width="2"/></g><g transform="translate(432 468)"><circle cx="36" cy="36" r="8.100000000000005" fill="rgb(255, 255, 255)" stroke="none" stroke-width="2"/></g><g transform="translate(468 468)"><circle cx="36" cy="36" r="8.100000000000005" fill="rgb(255, 255, 255)" stroke="none" stroke-width="2"/></g></g></svg>