<?xml version="1.0" standalone="no"?><!DOCTYPE svg PUBLIC "-//W3C//DTD SVG 1.1//EN" "http://www.w3.org/Graphics/SVG/1.1/DTD/svg11.dtd"><svg class="first" width="600" height="300" version="1.1" xmlns="http://www.w3.org/2000/svg" xmlns:xlink="http://www.w3.org/1999/xlink"><defs xmlns="http://www.w3.org/1999/xhtml"><style type="text/css"><![CDATA[
body { padding: 0px; margin: 0px; }]]></style></defs><rect x="0" y="0" width="600" height="600" fill="rgb(142, 158, 255)" stroke="none"/><polygon points="0 0 0 100 100 100" transform="translate(-50 -50)" fill="rgb(31, 250, 189)" fill-opacity="0.4233610658584363" stroke="rgb(0, 0, 0)" stroke-width="0.2"/><polygon points="0 0 0 100 100 100" transform="rotate(90 -50 -50) translate(-50 -50)" fill="rgb(73, 250, 189)" fill-opacity="0.7477503238189205" stroke="rgb(0, 0, 0)" stroke-width="0.2"/><polygon points="0 0 0 100 100 100" transform="rotate(180 -50 -50) translate(-50 -50)" fill="rgb(67, 250, 189)" fill-opacity="0.3716801094934914" stroke="rgb(0, 0, 0)" stroke-width="0.2"/><polygon points="0 0 0 50 50 50 50 0" transform="translate(-25 -25)" fill="rgb(181, 181, 181)" fill-opacity="0.6395788013921889" stroke="rgb(0, 0, 0)" stroke-width="0.2"/><polygon points="0 0 0 50 50 50 50 0" transform="translate(-75 -75)" fill="rgb(16, 16, 16)" fill-opacity="0.5556756929562436" stroke="rgb(0, 0, 0)" stroke-width="0.2"/><polygon points="0 0 0 100 100 100" transform="translate(-50 50)" fill="rgb(119, 250, 189)" fill-opacity="0.8748934315096679" stroke="rgb(0, 0, 0)" stroke-width="0.2"/><polygon points="0 0 0 100 100 100" transform="rotate(90 -50 50) translate(-50 50)" fill="rgb(14, 250, 189)" fill-opacity="0.7799335929822386" stroke="rgb(0, 0, 0)" stroke-width="0.2"/><polygon points="0 0 0 100 100 100" transform="rotate(180 -50 50) translate(-50 50)" fill="rgb(26, 250, 189)" fill-opacity="0.5316471072096649" stroke="rgb(0, 0, 0)" stroke-width="0.2"/><polygon points="0 0 0 50 50 50 50 0" transform="translate(-25 75)" fill="rgb(182, 182, 182)" fill-opacity="0.2457990380815442" stroke="rgb(0, 0, 0)" stroke-width="0.2"/><polygon points="0 0 0 50 50 50 50 0" transform="translate(-75 25)" fill="rgb(198, 198, 198)" fill-opacity="0.600814499739901" stroke="rgb(0, 0, 0)" stroke-width="0.2"/><polygon points="0 0 0 100 100 100" transform="translate(-50 150)" fill="rgb(44, 250, 189)" fill-opacity="0.21645757496676482" stroke="rgb(0, 0, 0)" stroke-width="0.2"/><polygon points="0 0 0 100 100 100" transform="rotate(90 -50 150) translate(-50 150)" fill="rgb(128, 250, 189)" fill-opacity="0.9915206063487583" stroke="rgb(0, 0, 0)" stroke-width="0.2"/><polygon points="0 0 0 100 100 100" transform="rotate(180 -50 150) translate(-50 150)" fill="rgb(48, 250, 189)" fill-opacity="0.22859616990062862" stroke="rgb(0, 0, 0)" stroke-width="0.2"/><polygon points="0 0 0 50 50 50 50 0" transform="translate(-25 175)" fill="rgb(84, 84, 84)" fill-opacity="0.7752476956666496" stroke="rgb(0, 0, 0)" stroke-width="0.2"/><polygon points="0 0 0 50 50 50 50 0" transform="translate(-75 125)" fill="rgb(43, 43, 43)" fill-opacity="0.7371072961820433" stroke="rgb(0, 0, 0)" stroke-width="0.2"/><polygon points="0 0 0 100 100 100" transform="translate(-50 250)" fill="rgb(84, 250, 189)" fill-opacity="0.3923662364133911" stroke="rgb(0, 0, 0)" stroke-width="0.2"/><polygon points="0 0 0 100 100 100" transform="rotate(90 -50 250) translate(-50 250)" fill="rgb(32, 250, 189)" fill-opacity="0.9241256669270015" stroke="rgb(0, 0, 0)" stroke-width="0.2"/><polygon points="0 0 0 100 100 100" transform="rotate(180 -50 250) translate(-50 250)" fill="rgb(36, 250, 189)" fill-opacity="0.8527703288791617" stroke="rgb(0, 0, 0)" stroke-width="0.2"/><polygon points="0 0 0 50 50 50 50 0" transform="translate(-25 275)" fill="rgb(81, 81, 81)" fill-opacity="0.6443010416997621" stroke="rgb(0, 0, 0)" stroke-width="0.2"/><polygon points="0 0 0 50 50 50 50 0" transform="translate(-75 225)" fill="rgb(163, 163, 163)" fill-opacity="0.6236665052249619" stroke="rgb(0, 0, 0)" stroke-width="0.2"/><polygon points="0 0 0 100 100 100" transform="translate(-50 350)" fill="rgb(139, 250, 189)" fill-opacity="0.8899886998204829" stroke="rgb(0, 0, 0)" stroke-width="0.2"/><polygon points="0 0 0 100 100 100" transform="rotate(90 -50 350) translate(-50 350)" fill="rgb(107, 250, 189)" fill-opacity="0.6898475426147246" stroke="rgb(0, 0, 0)" stroke-width="0.2"/><polygon points="0 0 0 100 100 100" transform="rotate(180 -50 350) translate(-50 350)" fill="rgb(94, 250, 189)" fill-opacity="0.6255962879356624" stroke="rgb(0, 0, 0)" stroke-width="0.2"/><polygon points="0 0 0 50 50 50 50 0" transform="translate(-25 375)" fill="rgb(27, 27, 27)" fill-opacity="0.3597705960376594" stroke="rgb(0, 0, 0)" stroke-width="0.2"/><polygon points="0 0 0 50 50 50 50 0" transform="translate(-75 325)" fill="rgb(181, 181, 181)" fill-opacity="0.5261447872279004" stroke="rgb(0, 0, 0)" stroke-width="0.2"/><polygon points="0 0 0 100 100 100" transform="translate(-50 450)" fill="rgb(70, 250, 189)" fill-opacity="0.994176587378063" stroke="rgb(0, 0, 0)" stroke-width="0.2"/><polygon points="0 0 0 100 100 100" transform="rotate(90 -50 450) translate(-50 450)" fill="rgb(117, 250, 189)" fill-opacity="0.936796281988274" stroke="rgb(0, 0, 0)" stroke-width="0.2"/><polygon points="0 0 0 100 100 100" transform="rotate(180 -50 450) translate(-50 450)" fill="rgb(125, 250, 189)" fill-opacity="0.6875651458707508" stroke="rgb(0, 0, 0)" stroke-width="0.2"/><polygon points="0 0 0 50 50 50 50 0" transform="translate(-25 475)" fill="rgb(234, 234, 234)" fill-opacity="0.7905201367448107" stroke="rgb(0, 0, 0)" stroke-width="0.2"/><polygon points="0 0 0 50 50 50 50 0" transform="translate(-75 425)" fill="rgb(193, 193, 193)" fill-opacity="0.5518724945216095" stroke="rgb(0, 0, 0)" stroke-width="0.2"/><polygon points="0 0 0 100 100 100" transform="translate(-50 550)" fill="rgb(72, 250, 189)" fill-opacity="0.22515669204902428" stroke="rgb(0, 0, 0)" stroke-width="0.2"/><polygon points="0 0 0 100 100 100" transform="rotate(90 -50 550) translate(-50 550)" fill="rgb(107, 250, 189)" fill-opacity="0.28148160289245044" stroke="rgb(0, 0, 0)" stroke-width="0.2"/><polygon points="0 0 0 100 100 100" transform="rotate(180 -50 550) translate(-50 550)" fill="rgb(3, 250, 189)" fill-opacity="0.5113088217549155" stroke="rgb(0, 0, 0)" stroke-width="0.2"/><polygon points="0 0 0 50 50 50 50 0" transform="translate(-25 575)" fill="rgb(228, 228, 228)" fill-opacity="0.6049328802205245" stroke="rgb(0, 0, 0)" stroke-width="0.2"/><polygon points="0 0 0 50 50 50 50 0" transform="translate(-75 525)" fill="rgb(227, 227, 227)" fill-opacity="0.8122641427918069" stroke="rgb(0, 0, 0)" stroke-width="0.2"/><polygon points="0 0 0 100 100 100" transform="translate(50 -50)" fill="rgb(129, 250, 189)" fill-opacity="0.6031559804018867" stroke="rgb(0, 0, 0)" stroke-width="0.2"/><polygon points="0 0 0 100 100 100" transform="rotate(90 50 -50) translate(50 -50)" fill="rgb(87, 250, 189)" fill-opacity="0.8885851133798979" stroke="rgb(0, 0, 0)" stroke-width="0.2"/><polygon points="0 0 0 100 100 100" transform="rotate(180 50 -50) translate(50 -50)" fill="rgb(14, 250, 189)" fill-opacity="0.4592442607644591" stroke="rgb(0, 0, 0)" stroke-width="0.2"/><polygon points="0 0 0 50 50 50 50 0" transform="translate(75 -25)" fill="rgb(173, 173, 173)" fill-opacity="0.22769529132923128" stroke="rgb(0, 0, 0)" stroke-width="0.2"/><polygon points="0 0 0 50 50 50 50 0" transform="translate(25 -75)" fill="rgb(50, 50, 50)" fill-opacity="0.6038715757230082" stroke="rgb(0, 0, 0)" stroke-width="0.2"/><polygon points="0 0 0 100 100 100" transform="translate(50 50)" fill="rgb(28, 250, 189)" fill-opacity="0.6752944105732885" stroke="rgb(0, 0, 0)" stroke-width="0.2"/><polygon points="0 0 0 100 100 100" transform="rotate(90 50 50) translate(50 50)" fill="rgb(110, 250, 189)" fill-opacity="0.2969616003167536" stroke="rgb(0, 0, 0)" stroke-width="0.2"/><polygon points="0 0 0 100 100 100" transform="rotate(180 50 50) translate(50 50)" fill="rgb(49, 250, 189)" fill-opacity="0.3630040029985777" stroke="rgb(0, 0, 0)" stroke-width="0.2"/><polygon points="0 0 0 50 50 50 50 0" transform="translate(75 75)" fill="rgb(174, 174, 174)" fill-opacity="0.5807783106601749" stroke="rgb(0, 0, 0)" stroke-width="0.2"/><polygon points="0 0 0 50 50 50 50 0" transform="translate(25 25)" fill="rgb(111, 111, 111)" fill-opacity="0.5952106076305101" stroke="rgb(0, 0, 0)" stroke-width="0.2"/><polygon points="0 0 0 100 100 100" transform="translate(50 150)" fill="rgb(25, 250, 189)" fill-opacity="0.3716847040630697" stroke="rgb(0, 0, 0)" stroke-width="0.2"/><polygon points="0 0 0 100 100 100" transform="rotate(90 50 150) translate(50 150)" fill="rgb(59, 250, 189)" fill-opacity="0.4600905310489887" stroke="rgb(0, 0, 0)" stroke-width="0.2"/><polygon points="0 0 0 100 100 100" transform="rotate(180 50 150) translate(50 150)" fill="rgb(57, 250, 189)" fill-opacity="0.7250752638730116" stroke="rgb(0, 0, 0)" stroke-width="0.2"/><polygon points="0 0 0 50 50 50 50 0" transform="translate(75 175)" fill="rgb(43, 43, 43)" fill-opacity="0.5185498125082852" stroke="rgb(0, 0, 0)" stroke-width="0.2"/><polygon points="0 0 0 50 50 50 50 0" transform="translate(25 125)" fill="rgb(245, 245, 245)" fill-opacity="0.2072900485394259" stroke="rgb(0, 0, 0)" stroke-width="0.2"/><polygon points="0 0 0 100 100 100" transform="translate(50 250)" fill="rgb(79, 250, 189)" fill-opacity="0.6895608735400286" stroke="rgb(0, 0, 0)" stroke-width="0.2"/><polygon points="0 0 0 100 100 100" transform="rotate(90 50 250) translate(50 250)" fill="rgb(108, 250, 189)" fill-opacity="0.5040119390101958" stroke="rgb(0, 0, 0)" stroke-width="0.2"/><polygon points="0 0 0 100 100 100" transform="rotate(180 50 250) translate(50 250)" fill="rgb(44, 250, 189)" fill-opacity="0.39254723202355746" stroke="rgb(0, 0, 0)" stroke-width="0.2"/><polygon points="0 0 0 50 50 50 50 0" transform="translate(75 275)" fill="rgb(193, 193, 193)" fill-opacity="0.42603318499664855" stroke="rgb(0, 0, 0)" stroke-width="0.2"/><polygon points="0 0 0 50 50 50 50 0" transform="translate(25 225)" fill="rgb(70, 70, 70)" fill-opacity="0.7238274501291675" stroke="rgb(0, 0, 0)" stroke-width="0.2"/><polygon points="0 0 0 100 100 100" transform="translate(50 350)" fill="rgb(73, 250, 189)" fill-opacity="0.3883516908641431" stroke="rgb(0, 0, 0)" stroke-width="0.2"/><polygon points="0 0 0 100 100 100" transform="rotate(90 50 350) translate(50 350)" fill="rgb(14, 250, 189)" fill-opacity="0.9739406662497505" stroke="rgb(0, 0, 0)" stroke-width="0.2"/><polygon points="0 0 0 100 100 100" transform="rotate(180 50 350) translate(50 350)" fill="rgb(59, 250, 189)" fill-opacity="0.42373485145221734" stroke="rgb(0, 0, 0)" stroke-width="0.2"/><polygon points="0 0 0 50 50 50 50 0" transform="translate(75 375)" fill="rgb(211, 211, 211)" fill-opacity="0.3603212041685927" stroke="rgb(0, 0, 0)" stroke-width="0.2"/><polygon points="0 0 0 50 50 50 50 0" transform="translate(25 325)" fill="rgb(230, 230, 230)" fill-opacity="0.48430801895736925" stroke="rgb(0, 0, 0)" stroke-width="0.2"/><polygon points="0 0 0 100 100 100" transform="translate(50 450)" fill="rgb(32, 250, 189)" fill-opacity="0.7813280917930043" stroke="rgb(0, 0, 0)" stroke-width="0.2"/><polygon points="0 0 0 100 100 100" transform="rotate(90 50 450) translate(50 450)" fill="rgb(125, 250, 189)" fill-opacity="0.47561183773311555" stroke="rgb(0, 0, 0)" stroke-width="0.2"/><polygon points="0 0 0 100 100 100" transform="rotate(180 50 450) translate(50 450)" fill="rgb(98, 250, 189)" fill-opacity="0.32400552689691814" stroke="rgb(0, 0, 0)" stroke-width="0.2"/><polygon points="0 0 0 50 50 50 50 0" transform="translate(75 475)" fill="rgb(51, 51, 51)" fill-opacity="0.36327535387707094" stroke="rgb(0, 0, 0)" stroke-width="0.2"/><polygon points="0 0 0 50 50 50 50 0" transform="translate(25 425)" fill="rgb(205, 205, 205)" fill-opacity="0.2558924822882048" stroke="rgb(0, 0, 0)" stroke-width="0.2"/><polygon points="0 0 0 100 100 100" transform="translate(50 550)" fill="rgb(105, 250, 189)" fill-opacity="0.4632379693496761" stroke="rgb(0, 0, 0)" stroke-width="0.2"/><polygon points="0 0 0 100 100 100" transform="rotate(90 50 550) translate(50 550)" fill="rgb(20, 250, 189)" fill-opacity="0.54340290368369" stroke="rgb(0, 0, 0)" stroke-width="0.2"/><polygon points="0 0 0 100 100 100" transform="rotate(180 50 550) translate(50 550)" fill="rgb(30, 250, 189)" fill-opacity="0.3503943756972728" stroke="rgb(0, 0, 0)" stroke-width="0.2"/><polygon points="0 0 0 50 50 50 50 0" transform="translate(75 575)" fill="rgb(107, 107, 107)" fill-opacity="0.5012083669057639" stroke="rgb(0, 0, 0)" stroke-width="0.2"/><polygon points="0 0 0 50 50 50 50 0" transform="translate(25 525)" fill="rgb(235, 235, 235)" fill-opacity="0.31623870004839444" stroke="rgb(0, 0, 0)" stroke-width="0.2"/><polygon points="0 0 0 100 100 100" transform="translate(150 -50)" fill="rgb(142, 250, 189)" fill-opacity="0.36826760390795776" stroke="rgb(0, 0, 0)" stroke-width="0.2"/><polygon points="0 0 0 100 100 100" transform="rotate(90 150 -50) translate(150 -50)" fill="rgb(66, 250, 189)" fill-opacity="0.36801328106324455" stroke="rgb(0, 0, 0)" stroke-width="0.2"/><polygon points="0 0 0 100 100 100" transform="rotate(180 150 -50) translate(150 -50)" fill="rgb(91, 250, 189)" fill-opacity="0.8406499763266833" stroke="rgb(0, 0, 0)" stroke-width="0.2"/><polygon points="0 0 0 50 50 50 50 0" transform="translate(175 -25)" fill="rgb(131, 131, 131)" fill-opacity="0.3410156810279247" stroke="rgb(0, 0, 0)" stroke-width="0.2"/><polygon points="0 0 0 50 50 50 50 0" transform="translate(125 -75)" fill="rgb(186, 186, 186)" fill-opacity="0.9347041455235998" stroke="rgb(0, 0, 0)" stroke-width="0.2"/><polygon points="0 0 0 100 100 100" transform="translate(150 50)" fill="rgb(108, 250, 189)" fill-opacity="0.37961846763601453" stroke="rgb(0, 0, 0)" stroke-width="0.2"/><polygon points="0 0 0 100 100 100" transform="rotate(90 150 50) translate(150 50)" fill="rgb(79, 250, 189)" fill-opacity="0.45833682897087336" stroke="rgb(0, 0, 0)" stroke-width="0.2"/><polygon points="0 0 0 100 100 100" transform="rotate(180 150 50) translate(150 50)" fill="rgb(44, 250, 189)" fill-opacity="0.9502081073793889" stroke="rgb(0, 0, 0)" stroke-width="0.2"/><polygon points="0 0 0 50 50 50 50 0" transform="translate(175 75)" fill="rgb(178, 178, 178)" fill-opacity="0.6407228324347921" stroke="rgb(0, 0, 0)" stroke-width="0.2"/><polygon points="0 0 0 50 50 50 50 0" transform="translate(125 25)" fill="rgb(181, 181, 181)" fill-opacity="0.9847190535925103" stroke="rgb(0, 0, 0)" stroke-width="0.2"/><polygon points="0 0 0 100 100 100" transform="translate(150 150)" fill="rgb(112, 250, 189)" fill-opacity="0.8211852062857996" stroke="rgb(0, 0, 0)" stroke-width="0.2"/><polygon points="0 0 0 100 100 100" transform="rotate(90 150 150) translate(150 150)" fill="rgb(12, 250, 189)" fill-opacity="0.331415848658782" stroke="rgb(0, 0, 0)" stroke-width="0.2"/><polygon points="0 0 0 100 100 100" transform="rotate(180 150 150) translate(150 150)" fill="rgb(1, 250, 189)" fill-opacity="0.8496542015943651" stroke="rgb(0, 0, 0)" stroke-width="0.2"/><polygon points="0 0 0 50 50 50 50 0" transform="translate(175 175)" fill="rgb(150, 150, 150)" fill-opacity="0.8469635024508875" stroke="rgb(0, 0, 0)" stroke-width="0.2"/><polygon points="0 0 0 50 50 50 50 0" transform="translate(125 125)" fill="rgb(68, 68, 68)" fill-opacity="0.997331664499308" stroke="rgb(0, 0, 0)" stroke-width="0.2"/><polygon points="0 0 0 100 100 100" transform="translate(150 250)" fill="rgb(66, 250, 189)" fill-opacity="0.9700940578985222" stroke="rgb(0, 0, 0)" stroke-width="0.2"/><polygon points="0 0 0 100 100 100" transform="rotate(90 150 250) translate(150 250)" fill="rgb(32, 250, 189)" fill-opacity="0.5495778257870777" stroke="rgb(0, 0, 0)" stroke-width="0.2"/><polygon points="0 0 0 100 100 100" transform="rotate(180 150 250) translate(150 250)" fill="rgb(7, 250, 189)" fill-opacity="0.7664485012006679" stroke="rgb(0, 0, 0)" stroke-width="0.2"/><polygon points="0 0 0 50 50 50 50 0" transform="translate(175 275)" fill="rgb(63, 63, 63)" fill-opacity="0.9513844111927605" stroke="rgb(0, 0, 0)" stroke-width="0.2"/><polygon points="0 0 0 50 50 50 50 0" transform="translate(125 225)" fill="rgb(39, 39, 39)" fill-opacity="0.6148188798160948" stroke="rgb(0, 0, 0)" stroke-width="0.2"/><polygon points="0 0 0 100 100 100" transform="translate(150 350)" fill="rgb(104, 250, 189)" fill-opacity="0.4034888796817592" stroke="rgb(0, 0, 0)" stroke-width="0.2"/><polygon points="0 0 0 100 100 100" transform="rotate(90 150 350) translate(150 350)" fill="rgb(134, 250, 189)" fill-opacity="0.6326872084996855" stroke="rgb(0, 0, 0)" stroke-width="0.2"/><polygon points="0 0 0 100 100 100" transform="rotate(180 150 350) translate(150 350)" fill="rgb(75, 250, 189)" fill-opacity="0.2999516302299823" stroke="rgb(0, 0, 0)" stroke-width="0.2"/><polygon points="0 0 0 50 50 50 50 0" transform="translate(175 375)" fill="rgb(129, 129, 129)" fill-opacity="0.5854678388321726" stroke="rgb(0, 0, 0)" stroke-width="0.2"/><polygon points="0 0 0 50 50 50 50 0" transform="translate(125 325)" fill="rgb(217, 217, 217)" fill-opacity="0.591765417131858" stroke="rgb(0, 0, 0)" stroke-width="0.2"/><polygon points="0 0 0 100 100 100" transform="translate(150 450)" fill="rgb(93, 250, 189)" fill-opacity="0.8547540460812333" stroke="rgb(0, 0, 0)" stroke-width="0.2"/><polygon points="0 0 0 100 100 100" transform="rotate(90 150 450) translate(150 450)" fill="rgb(140, 250, 189)" fill-opacity="0.4376022210202427" stroke="rgb(0, 0, 0)" stroke-width="0.2"/><polygon points="0 0 0 100 100 100" transform="rotate(180 150 450) translate(150 450)" fill="rgb(70, 250, 189)" fill-opacity="0.8815442413555017" stroke="rgb(0, 0, 0)" stroke-width="0.2"/><polygon points="0 0 0 50 50 50 50 0" transform="translate(175 475)" fill="rgb(107, 107, 107)" fill-opacity="0.41356257039706484" stroke="rgb(0, 0, 0)" stroke-width="0.2"/><polygon points="0 0 0 50 50 50 50 0" transform="translate(125 425)" fill="rgb(235, 235, 235)" fill-opacity="0.7501966438312848" stroke="rgb(0, 0, 0)" stroke-width="0.2"/><polygon points="0 0 0 100 100 100" transform="translate(150 550)" fill="rgb(10, 250, 189)" fill-opacity="0.647596567591466" stroke="rgb(0, 0, 0)" stroke-width="0.2"/><polygon points="0 0 0 100 100 100" transform="rotate(90 150 550) translate(150 550)" fill="rgb(61, 250, 189)" fill-opacity="0.5043357356522182" stroke="rgb(0, 0, 0)" stroke-width="0.2"/><polygon points="0 0 0 100 100 100" transform="rotate(180 150 550) translate(150 550)" fill="rgb(15, 250, 189)" fill-opacity="0.6225110117979455" stroke="rgb(0, 0, 0)" stroke-width="0.2"/><polygon points="0 0 0 50 50 50 50 0" transform="translate(175 575)" fill="rgb(101, 101, 101)" fill-opacity="0.3755837643757399" stroke="rgb(0, 0, 0)" stroke-width="0.2"/><polygon points="0 0 0 50 50 50 50 0" transform="translate(125 525)" fill="rgb(37, 37, 37)" fill-opacity="0.3428755513488227" stroke="rgb(0, 0, 0)" stroke-width="0.2"/><polygon points="0 0 0 100 100 100" transform="translate(250 -50)" fill="rgb(109, 250, 189)" fill-opacity="0.6613874442295598" stroke="rgb(0, 0, 0)" stroke-width="0.2"/><polygon points="0 0 0 100 100 100" transform="rotate(90 250 -50) translate(250 -50)" fill="rgb(111, 250, 189)" fill-opacity="0.6019975240402232" stroke="rgb(0, 0, 0)" stroke-width="0.2"/><polygon points="0 0 0 100 100 100" transform="rotate(180 250 -50) translate(250 -50)" fill="rgb(116, 250, 189)" fill-opacity="0.7489400741175369" stroke="rgb(0, 0, 0)" stroke-width="0.2"/><polygon points="0 0 0 50 50 50 50 0" transform="translate(275 -25)" fill="rgb(77, 77, 77)" fill-opacity="0.21203044519565353" stroke="rgb(0, 0, 0)" stroke-width="0.2"/><polygon points="0 0 0 50 50 50 50 0" transform="translate(225 -75)" fill="rgb(194, 194, 194)" fill-opacity="0.6390035331808296" stroke="rgb(0, 0, 0)" stroke-width="0.2"/><polygon points="0 0 0 100 100 100" transform="translate(250 50)" fill="rgb(40, 250, 189)" fill-opacity="0.33970685505940545" stroke="rgb(0, 0, 0)" stroke-width="0.2"/><polygon points="0 0 0 100 100 100" transform="rotate(90 250 50) translate(250 50)" fill="rgb(87, 250, 189)" fill-opacity="0.9003570038721114" stroke="rgb(0, 0, 0)" stroke-width="0.2"/><polygon points="0 0 0 100 100 100" transform="rotate(180 250 50) translate(250 50)" fill="rgb(100, 250, 189)" fill-opacity="0.4959819353589474" stroke="rgb(0, 0, 0)" stroke-width="0.2"/><polygon points="0 0 0 50 50 50 50 0" transform="translate(275 75)" fill="rgb(216, 216, 216)" fill-opacity="0.21088774579213487" stroke="rgb(0, 0, 0)" stroke-width="0.2"/><polygon points="0 0 0 50 50 50 50 0" transform="translate(225 25)" fill="rgb(80, 80, 80)" fill-opacity="0.24994122820708872" stroke="rgb(0, 0, 0)" stroke-width="0.2"/><polygon points="0 0 0 100 100 100" transform="translate(250 150)" fill="rgb(15, 250, 189)" fill-opacity="0.701786587474224" stroke="rgb(0, 0, 0)" stroke-width="0.2"/><polygon points="0 0 0 100 100 100" transform="rotate(90 250 150) translate(250 150)" fill="rgb(9, 250, 189)" fill-opacity="0.3479962572241574" stroke="rgb(0, 0, 0)" stroke-width="0.2"/><polygon points="0 0 0 100 100 100" transform="rotate(180 250 150) translate(250 150)" fill="rgb(6, 250, 189)" fill-opacity="0.24476062477517005" stroke="rgb(0, 0, 0)" stroke-width="0.2"/><polygon points="0 0 0 50 50 50 50 0" transform="translate(275 175)" fill="rgb(136, 136, 136)" fill-opacity="0.8365528663597022" stroke="rgb(0, 0, 0)" stroke-width="0.2"/><polygon points="0 0 0 50 50 50 50 0" transform="translate(225 125)" fill="rgb(223, 223, 223)" fill-opacity="0.8219893039891921" stroke="rgb(0, 0, 0)" stroke-width="0.2"/><polygon points="0 0 0 100 100 100" transform="translate(250 250)" fill="rgb(24, 250, 189)" fill-opacity="0.820797670639926" stroke="rgb(0, 0, 0)" stroke-width="0.2"/><polygon points="0 0 0 100 100 100" transform="rotate(90 250 250) translate(250 250)" fill="rgb(15, 250, 189)" fill-opacity="0.6574808356404184" stroke="rgb(0, 0, 0)" stroke-width="0.2"/><polygon points="0 0 0 100 100 100" transform="rotate(180 250 250) translate(250 250)" fill="rgb(34, 250, 189)" fill-opacity="0.8717904390150764" stroke="rgb(0, 0, 0)" stroke-width="0.2"/><polygon points="0 0 0 50 50 50 50 0" transform="translate(275 275)" fill="rgb(240, 240, 240)" fill-opacity="0.8399633690245787" stroke="rgb(0, 0, 0)" stroke-width="0.2"/><polygon points="0 0 0 50 50 50 50 0" transform="translate(225 225)" fill="rgb(73, 73, 73)" fill-opacity="0.6663727832606576" stroke="rgb(0, 0, 0)" stroke-width="0.2"/><polygon points="0 0 0 100 100 100" transform="translate(250 350)" fill="rgb(127, 250, 189)" fill-opacity="0.4983752412801467" stroke="rgb(0, 0, 0)" stroke-width="0.2"/><polygon points="0 0 0 100 100 100" transform="rotate(90 250 350) translate(250 350)" fill="rgb(82, 250, 189)" fill-opacity="0.5015354322005168" stroke="rgb(0, 0, 0)" stroke-width="0.2"/><polygon points="0 0 0 100 100 100" transform="rotate(180 250 350) translate(250 350)" fill="rgb(26, 250, 189)" fill-opacity="0.2087837948138967" stroke="rgb(0, 0, 0)" stroke-width="0.2"/><polygon points="0 0 0 50 50 50 50 0" transform="translate(275 375)" fill="rgb(205, 205, 205)" fill-opacity="0.5293734916606742" stroke="rgb(0, 0, 0)" stroke-width="0.2"/><polygon points="0 0 0 50 50 50 50 0" transform="translate(225 325)" fill="rgb(114, 114, 114)" fill-opacity="0.807542078486263" stroke="rgb(0, 0, 0)" stroke-width="0.2"/><polygon points="0 0 0 100 100 100" transform="translate(250 450)" fill="rgb(76, 250, 189)" fill-opacity="0.44370664551671823" stroke="rgb(0, 0, 0)" stroke-width="0.2"/><polygon points="0 0 0 100 100 100" transform="rotate(90 250 450) translate(250 450)" fill="rgb(62, 250, 189)" fill-opacity="0.45576054418075956" stroke="rgb(0, 0, 0)" stroke-width="0.2"/><polygon points="0 0 0 100 100 100" transform="rotate(180 250 450) translate(250 450)" fill="rgb(138, 250, 189)" fill-opacity="0.9586194805011179" stroke="rgb(0, 0, 0)" stroke-width="0.2"/><polygon points="0 0 0 50 50 50 50 0" transform="translate(275 475)" fill="rgb(9, 9, 9)" fill-opacity="0.5876186967937065" stroke="rgb(0, 0, 0)" stroke-width="0.2"/><polygon points="0 0 0 50 50 50 50 0" transform="translate(225 425)" fill="rgb(248, 248, 248)" fill-opacity="0.6733439301367709" stroke="rgb(0, 0, 0)" stroke-width="0.2"/><polygon points="0 0 0 100 100 100" transform="translate(250 550)" fill="rgb(38, 250, 189)" fill-opacity="0.6107368157379707" stroke="rgb(0, 0, 0)" stroke-width="0.2"/><polygon points="0 0 0 100 100 100" transform="rotate(90 250 550) translate(250 550)" fill="rgb(86, 250, 189)" fill-opacity="0.300551702961646" stroke="rgb(0, 0, 0)" stroke-width="0.2"/><polygon points="0 0 0 100 100 100" transform="rotate(180 250 550) translate(250 550)" fill="rgb(66, 250, 189)" fill-opacity="0.9188990060906195" stroke="rgb(0, 0, 0)" stroke-width="0.2"/><polygon points="0 0 0 50 50 50 50 0" transform="translate(275 575)" fill="rgb(193, 193, 193)" fill-opacity="0.7375189611170982" stroke="rgb(0, 0, 0)" stroke-width="0.2"/><polygon points="0 0 0 50 50 50 50 0" transform="translate(225 525)" fill="rgb(193, 193, 193)" fill-opacity="0.5334773206208734" stroke="rgb(0, 0, 0)" stroke-width="0.2"/><polygon points="0 0 0 100 100 100" transform="translate(350 -50)" fill="rgb(6, 250, 189)" fill-opacity="0.6848691916658234" stroke="rgb(0, 0, 0)" stroke-width="0.2"/><polygon points="0 0 0 100 100 100" transform="rotate(90 350 -50) translate(350 -50)" fill="rgb(131, 250, 189)" fill-opacity="0.8083033259027674" stroke="rgb(0, 0, 0)" stroke-width="0.2"/><polygon points="0 0 0 100 100 100" transform="rotate(180 350 -50) translate(350 -50)" fill="rgb(142, 250, 189)" fill-opacity="0.60338503777448" stroke="rgb(0, 0, 0)" stroke-width="0.2"/><polygon points="0 0 0 50 50 50 50 0" transform="translate(375 -25)" fill="rgb(138, 138, 138)" fill-opacity="0.5878885813374803" stroke="rgb(0, 0, 0)" stroke-width="0.2"/><polygon points="0 0 0 50 50 50 50 0" transform="translate(325 -75)" fill="rgb(227, 227, 227)" fill-opacity="0.24435926547963796" stroke="rgb(0, 0, 0)" stroke-width="0.2"/><polygon points="0 0 0 100 100 100" transform="translate(350 50)" fill="rgb(115, 250, 189)" fill-opacity="0.4284395781528712" stroke="rgb(0, 0, 0)" stroke-width="0.2"/><polygon points="0 0 0 100 100 100" transform="rotate(90 350 50) translate(350 50)" fill="rgb(138, 250, 189)" fill-opacity="0.6561198325190072" stroke="rgb(0, 0, 0)" stroke-width="0.2"/><polygon points="0 0 0 100 100 100" transform="rotate(180 350 50) translate(350 50)" fill="rgb(14, 250, 189)" fill-opacity="0.698982726724315" stroke="rgb(0, 0, 0)" stroke-width="0.2"/><polygon points="0 0 0 50 50 50 50 0" transform="translate(375 75)" fill="rgb(192, 192, 192)" fill-opacity="0.39645064765160465" stroke="rgb(0, 0, 0)" stroke-width="0.2"/><polygon points="0 0 0 50 50 50 50 0" transform="translate(325 25)" fill="rgb(254, 254, 254)" fill-opacity="0.8954841498260617" stroke="rgb(0, 0, 0)" stroke-width="0.2"/><polygon points="0 0 0 100 100 100" transform="translate(350 150)" fill="rgb(73, 250, 189)" fill-opacity="0.5512133771280994" stroke="rgb(0, 0, 0)" stroke-width="0.2"/><polygon points="0 0 0 100 100 100" transform="rotate(90 350 150) translate(350 150)" fill="rgb(101, 250, 189)" fill-opacity="0.6857261970708655" stroke="rgb(0, 0, 0)" stroke-width="0.2"/><polygon points="0 0 0 100 100 100" transform="rotate(180 350 150) translate(350 150)" fill="rgb(112, 250, 189)" fill-opacity="0.33275679633919425" stroke="rgb(0, 0, 0)" stroke-width="0.2"/><polygon points="0 0 0 50 50 50 50 0" transform="translate(375 175)" fill="rgb(245, 245, 245)" fill-opacity="0.659807989275175" stroke="rgb(0, 0, 0)" stroke-width="0.2"/><polygon points="0 0 0 50 50 50 50 0" transform="translate(325 125)" fill="rgb(196, 196, 196)" fill-opacity="0.816264478991533" stroke="rgb(0, 0, 0)" stroke-width="0.2"/><polygon points="0 0 0 100 100 100" transform="translate(350 250)" fill="rgb(71, 250, 189)" fill-opacity="0.9641247133063524" stroke="rgb(0, 0, 0)" stroke-width="0.2"/><polygon points="0 0 0 100 100 100" transform="rotate(90 350 250) translate(350 250)" fill="rgb(36, 250, 189)" fill-opacity="0.8909239223060685" stroke="rgb(0, 0, 0)" stroke-width="0.2"/><polygon points="0 0 0 100 100 100" transform="rotate(180 350 250) translate(350 250)" fill="rgb(12, 250, 189)" fill-opacity="0.6228272209209744" stroke="rgb(0, 0, 0)" stroke-width="0.2"/><polygon points="0 0 0 50 50 50 50 0" transform="translate(375 275)" fill="rgb(37, 37, 37)" fill-opacity="0.644340398723708" stroke="rgb(0, 0, 0)" stroke-width="0.2"/><polygon points="0 0 0 50 50 50 50 0" transform="translate(325 225)" fill="rgb(13, 13, 13)" fill-opacity="0.3986399905259765" stroke="rgb(0, 0, 0)" stroke-width="0.2"/><polygon points="0 0 0 100 100 100" transform="translate(350 350)" fill="rgb(84, 250, 189)" fill-opacity="0.49272566235723564" stroke="rgb(0, 0, 0)" stroke-width="0.2"/><polygon points="0 0 0 100 100 100" transform="rotate(90 350 350) translate(350 350)" fill="rgb(139, 250, 189)" fill-opacity="0.43860676996276365" stroke="rgb(0, 0, 0)" stroke-width="0.2"/><polygon points="0 0 0 100 100 100" transform="rotate(180 350 350) translate(350 350)" fill="rgb(21, 250, 189)" fill-opacity="0.7536853869752687" stroke="rgb(0, 0, 0)" stroke-width="0.2"/><polygon points="0 0 0 50 50 50 50 0" transform="translate(375 375)" fill="rgb(19, 19, 19)" fill-opacity="0.5061093304997639" stroke="rgb(0, 0, 0)" stroke-width="0.2"/><polygon points="0 0 0 50 50 50 50 0" transform="translate(325 325)" fill="rgb(71, 71, 71)" fill-opacity="0.5184164523414305" stroke="rgb(0, 0, 0)" stroke-width="0.2"/><polygon points="0 0 0 100 100 100" transform="translate(350 450)" fill="rgb(59, 250, 189)" fill-opacity="0.7853217727688475" stroke="rgb(0, 0, 0)" stroke-width="0.2"/><polygon points="0 0 0 100 100 100" transform="rotate(90 350 450) translate(350 450)" fill="rgb(24, 250, 189)" fill-opacity="0.6764301296022095" stroke="rgb(0, 0, 0)" stroke-width="0.2"/><polygon points="0 0 0 100 100 100" transform="rotate(180 350 450) translate(350 450)" fill="rgb(25, 250, 189)" fill-opacity="0.4216735091508758" stroke="rgb(0, 0, 0)" stroke-width="0.2"/><polygon points="0 0 0 50 50 50 50 0" transform="translate(375 475)" fill="rgb(34, 34, 34)" fill-opacity="0.7631117659381548" stroke="rgb(0, 0, 0)" stroke-width="0.2"/><polygon points="0 0 0 50 50 50 50 0" transform="translate(325 425)" fill="rgb(244, 244, 244)" fill-opacity="0.9348423296556685" stroke="rgb(0, 0, 0)" stroke-width="0.2"/><polygon points="0 0 0 100 100 100" transform="translate(350 550)" fill="rgb(114, 250, 189)" fill-opacity="0.2602966708558512" stroke="rgb(0, 0, 0)" stroke-width="0.2"/><polygon points="0 0 0 100 100 100" transform="rotate(90 350 550) translate(350 550)" fill="rgb(27, 250, 189)" fill-opacity="0.401739035584502" stroke="rgb(0, 0, 0)" stroke-width="0.2"/><polygon points="0 0 0 100 100 100" transform="rotate(180 350 550) translate(350 550)" fill="rgb(85, 250, 189)" fill-opacity="0.5826037997264653" stroke="rgb(0, 0, 0)" stroke-width="0.2"/><polygon points="0 0 0 50 50 50 50 0" transform="translate(375 575)" fill="rgb(241, 241, 241)" fill-opacity="0.8586135498620111" stroke="rgb(0, 0, 0)" stroke-width="0.2"/><polygon points="0 0 0 50 50 50 50 0" transform="translate(325 525)" fill="rgb(12, 12, 12)" fill-opacity="0.6403630877236153" stroke="rgb(0, 0, 0)" stroke-width="0.2"/><polygon points="0 0 0 100 100 100" transform="translate(450 -50)" fill="rgb(121, 250, 189)" fill-opacity="0.656099532752223" stroke="rgb(0, 0, 0)" stroke-width="0.2"/><polygon points="0 0 0 100 100 100" transform="rotate(90 450 -50) translate(450 -50)" fill="rgb(67, 250, 189)" fill-opacity="0.5538654632244079" stroke="rgb(0, 0, 0)" stroke-width="0.2"/><polygon points="0 0 0 100 100 100" transform="rotate(180 450 -50) translate(450 -50)" fill="rgb(53, 250, 189)" fill-opacity="0.20300542641230274" stroke="rgb(0, 0, 0)" stroke-width="0.2"/><polygon points="0 0 0 50 50 50 50 0" transform="translate(475 -25)" fill="rgb(227, 227, 227)" fill-opacity="0.5199636962629516" stroke="rgb(0, 0, 0)" stroke-width="0.2"/><polygon points="0 0 0 50 50 50 50 0" transform="translate(425 -75)" fill="rgb(70, 70, 70)" fill-opacity="0.4236948591995903" stroke="rgb(0, 0, 0)" stroke-width="0.2"/><polygon points="0 0 0 100 100 100" transform="translate(450 50)" fill="rgb(91, 250, 189)" fill-opacity="0.794236695380576" stroke="rgb(0, 0, 0)" stroke-width="0.2"/><polygon points="0 0 0 100 100 100" transform="rotate(90 450 50) translate(450 50)" fill="rgb(102, 250, 189)" fill-opacity="0.8311270421582362" stroke="rgb(0, 0, 0)" stroke-width="0.2"/><polygon points="0 0 0 100 100 100" transform="rotate(180 450 50) translate(450 50)" fill="rgb(74, 250, 189)" fill-opacity="0.956715005667838" stroke="rgb(0, 0, 0)" stroke-width="0.2"/><polygon points="0 0 0 50 50 50 50 0" transform="translate(475 75)" fill="rgb(131, 131, 131)" fill-opacity="0.883255739990445" stroke="rgb(0, 0, 0)" stroke-width="0.2"/><polygon points="0 0 0 50 50 50 50 0" transform="translate(425 25)" fill="rgb(86, 86, 86)" fill-opacity="0.4512401246378126" stroke="rgb(0, 0, 0)" stroke-width="0.2"/><polygon points="0 0 0 100 100 100" transform="translate(450 150)" fill="rgb(79, 250, 189)" fill-opacity="0.8213518592439548" stroke="rgb(0, 0, 0)" stroke-width="0.2"/><polygon points="0 0 0 100 100 100" transform="rotate(90 450 150) translate(450 150)" fill="rgb(35, 250, 189)" fill-opacity="0.2629997009530207" stroke="rgb(0, 0, 0)" stroke-width="0.2"/><polygon points="0 0 0 100 100 100" transform="rotate(180 450 150) translate(450 150)" fill="rgb(125, 250, 189)" fill-opacity="0.9869622292459765" stroke="rgb(0, 0, 0)" stroke-width="0.2"/><polygon points="0 0 0 50 50 50 50 0" transform="translate(475 175)" fill="rgb(120, 120, 120)" fill-opacity="0.5913800257954713" stroke="rgb(0, 0, 0)" stroke-width="0.2"/><polygon points="0 0 0 50 50 50 50 0" transform="translate(425 125)" fill="rgb(224, 224, 224)" fill-opacity="0.7685948308800261" stroke="rgb(0, 0, 0)" stroke-width="0.2"/><polygon points="0 0 0 100 100 100" transform="translate(450 250)" fill="rgb(64, 250, 189)" fill-opacity="0.9498881986135228" stroke="rgb(0, 0, 0)" stroke-width="0.2"/><polygon points="0 0 0 100 100 100" transform="rotate(90 450 250) translate(450 250)" fill="rgb(38, 250, 189)" fill-opacity="0.6551398521666407" stroke="rgb(0, 0, 0)" stroke-width="0.2"/><polygon points="0 0 0 100 100 100" transform="rotate(180 450 250) translate(450 250)" fill="rgb(100, 250, 189)" fill-opacity="0.6985745822800316" stroke="rgb(0, 0, 0)" stroke-width="0.2"/><polygon points="0 0 0 50 50 50 50 0" transform="translate(475 275)" fill="rgb(149, 149, 149)" fill-opacity="0.678358782481719" stroke="rgb(0, 0, 0)" stroke-width="0.2"/><polygon points="0 0 0 50 50 50 50 0" transform="translate(425 225)" fill="rgb(25, 25, 25)" fill-opacity="0.9297629161632384" stroke="rgb(0, 0, 0)" stroke-width="0.2"/><polygon points="0 0 0 100 100 100" transform="translate(450 350)" fill="rgb(8, 250, 189)" fill-opacity="0.686443476120095" stroke="rgb(0, 0, 0)" stroke-width="0.2"/><polygon points="0 0 0 100 100 100" transform="rotate(90 450 350) translate(450 350)" fill="rgb(115, 250, 189)" fill-opacity="0.8561720966419581" stroke="rgb(0, 0, 0)" stroke-width="0.2"/><polygon points="0 0 0 100 100 100" transform="rotate(180 450 350) translate(450 350)" fill="rgb(93, 250, 189)" fill-opacity="0.8905350722308618" stroke="rgb(0, 0, 0)" stroke-width="0.2"/><polygon points="0 0 0 50 50 50 50 0" transform="translate(475 375)" fill="rgb(241, 241, 241)" fill-opacity="0.9155269442587783" stroke="rgb(0, 0, 0)" stroke-width="0.2"/><polygon points="0 0 0 50 50 50 50 0" transform="translate(425 325)" fill="rgb(148, 148, 148)" fill-opacity="0.5118809378107843" stroke="rgb(0, 0, 0)" stroke-width="0.2"/><polygon points="0 0 0 100 100 100" transform="translate(450 450)" fill="rgb(45, 250, 189)" fill-opacity="0.4762931322194495" stroke="rgb(0, 0, 0)" stroke-width="0.2"/><polygon points="0 0 0 100 100 100" transform="rotate(90 450 450) translate(450 450)" fill="rgb(48, 250, 189)" fill-opacity="0.7592891741925951" stroke="rgb(0, 0, 0)" stroke-width="0.2"/><polygon points="0 0 0 100 100 100" transform="rotate(180 450 450) translate(450 450)" fill="rgb(103, 250, 189)" fill-opacity="0.7706160269523987" stroke="rgb(0, 0, 0)" stroke-width="0.2"/><polygon points="0 0 0 50 50 50 50 0" transform="translate(475 475)" fill="rgb(84, 84, 84)" fill-opacity="0.7962385528940614" stroke="rgb(0, 0, 0)" stroke-width="0.2"/><polygon points="0 0 0 50 50 50 50 0" transform="translate(425 425)" fill="rgb(121, 121, 121)" fill-opacity="0.49292329669964" stroke="rgb(0, 0, 0)" stroke-width="0.2"/><polygon points="0 0 0 100 100 100" transform="translate(450 550)" fill="rgb(88, 250, 189)" fill-opacity="0.3598388950579285" stroke="rgb(0, 0, 0)" stroke-width="0.2"/><polygon points="0 0 0 100 100 100" transform="rotate(90 450 550) translate(450 550)" fill="rgb(36, 250, 189)" fill-opacity="0.708335629774874" stroke="rgb(0, 0, 0)" stroke-width="0.2"/><polygon points="0 0 0 100 100 100" transform="rotate(180 450 550) translate(450 550)" fill="rgb(130, 250, 189)" fill-opacity="0.5107292055396069" stroke="rgb(0, 0, 0)" stroke-width="0.2"/><polygon points="0 0 0 50 50 50 50 0" transform="translate(475 575)" fill="rgb(238, 238, 238)" fill-opacity="0.6315896994515686" stroke="rgb(0, 0, 0)" stroke-width="0.2"/><polygon points="0 0 0 50 50 50 50 0" transform="translate(425 525)" fill="rgb(179, 179, 179)" fill-opacity="0.6392313361236099" stroke="rgb(0, 0, 0)" stroke-width="0.2"/><polygon points="0 0 0 100 100 100" transform="translate(550 -50)" fill="rgb(135, 250, 189)" fill-opacity="0.2897817045808392" stroke="rgb(0, 0, 0)" stroke-width="0.2"/><polygon points="0 0 0 100 100 100" transform="rotate(90 550 -50) translate(550 -50)" fill="rgb(109, 250, 189)" fill-opacity="0.9797548467678907" stroke="rgb(0, 0, 0)" stroke-width="0.2"/><polygon points="0 0 0 100 100 100" transform="rotate(180 550 -50) translate(550 -50)" fill="rgb(8, 250, 189)" fill-opacity="0.9861070490797121" stroke="rgb(0, 0, 0)" stroke-width="0.2"/><polygon points="0 0 0 50 50 50 50 0" transform="translate(575 -25)" fill="rgb(234, 234, 234)" fill-opacity="0.8618389100072628" stroke="rgb(0, 0, 0)" stroke-width="0.2"/><polygon points="0 0 0 50 50 50 50 0" transform="translate(525 -75)" fill="rgb(226, 226, 226)" fill-opacity="0.5453470575556866" stroke="rgb(0, 0, 0)" stroke-width="0.2"/><polygon points="0 0 0 100 100 100" transform="translate(550 50)" fill="rgb(140, 250, 189)" fill-opacity="0.24137339557171061" stroke="rgb(0, 0, 0)" stroke-width="0.2"/><polygon points="0 0 0 100 100 100" transform="rotate(90 550 50) translate(550 50)" fill="rgb(110, 250, 189)" fill-opacity="0.3610845080866913" stroke="rgb(0, 0, 0)" stroke-width="0.2"/><polygon points="0 0 0 100 100 100" transform="rotate(180 550 50) translate(550 50)" fill="rgb(93, 250, 189)" fill-opacity="0.9398505480601613" stroke="rgb(0, 0, 0)" stroke-width="0.2"/><polygon points="0 0 0 50 50 50 50 0" transform="translate(575 75)" fill="rgb(116, 116, 116)" fill-opacity="0.40854422738149465" stroke="rgb(0, 0, 0)" stroke-width="0.2"/><polygon points="0 0 0 50 50 50 50 0" transform="translate(525 25)" fill="rgb(239, 239, 239)" fill-opacity="0.6234956143029704" stroke="rgb(0, 0, 0)" stroke-width="0.2"/><polygon points="0 0 0 100 100 100" transform="translate(550 150)" fill="rgb(86, 250, 189)" fill-opacity="0.9251918866990023" stroke="rgb(0, 0, 0)" stroke-width="0.2"/><polygon points="0 0 0 100 100 100" transform="rotate(90 550 150) translate(550 150)" fill="rgb(141, 250, 189)" fill-opacity="0.5562901137476957" stroke="rgb(0, 0, 0)" stroke-width="0.2"/><polygon points="0 0 0 100 100 100" transform="rotate(180 550 150) translate(550 150)" fill="rgb(44, 250, 189)" fill-opacity="0.48301091142065505" stroke="rgb(0, 0, 0)" stroke-width="0.2"/><polygon points="0 0 0 50 50 50 50 0" transform="translate(575 175)" fill="rgb(31, 31, 31)" fill-opacity="0.7068547614374439" stroke="rgb(0, 0, 0)" stroke-width="0.2"/><polygon points="0 0 0 50 50 50 50 0" transform="translate(525 125)" fill="rgb(14, 14, 14)" fill-opacity="0.2706374584582502" stroke="rgb(0, 0, 0)" stroke-width="0.2"/><polygon points="0 0 0 100 100 100" transform="translate(550 250)" fill="rgb(68, 250, 189)" fill-opacity="0.7496003831257454" stroke="rgb(0, 0, 0)" stroke-width="0.2"/><polygon points="0 0 0 100 100 100" transform="rotate(90 550 250) translate(550 250)" fill="rgb(43, 250, 189)" fill-opacity="0.28921637577764375" stroke="rgb(0, 0, 0)" stroke-width="0.2"/><polygon points="0 0 0 100 100 100" transform="rotate(180 550 250) translate(550 250)" fill="rgb(63, 250, 189)" fill-opacity="0.8074722709653235" stroke="rgb(0, 0, 0)" stroke-width="0.2"/><polygon points="0 0 0 50 50 50 50 0" transform="translate(575 275)" fill="rgb(247, 247, 247)" fill-opacity="0.8905976680734022" stroke="rgb(0, 0, 0)" stroke-width="0.2"/><polygon points="0 0 0 50 50 50 50 0" transform="translate(525 225)" fill="rgb(33, 33, 33)" fill-opacity="0.5126207476285685" stroke="rgb(0, 0, 0)" stroke-width="0.2"/><polygon points="0 0 0 100 100 100" transform="translate(550 350)" fill="rgb(62, 250, 189)" fill-opacity="0.9041515178372774" stroke="rgb(0, 0, 0)" stroke-width="0.2"/><polygon points="0 0 0 100 100 100" transform="rotate(90 550 350) translate(550 350)" fill="rgb(19, 250, 189)" fill-opacity="0.31364405966646436" stroke="rgb(0, 0, 0)" stroke-width="0.2"/><polygon points="0 0 0 100 100 100" transform="rotate(180 550 350) translate(550 350)" fill="rgb(52, 250, 189)" fill-opacity="0.30853727786859975" stroke="rgb(0, 0, 0)" stroke-width="0.2"/><polygon points="0 0 0 50 50 50 50 0" transform="translate(575 375)" fill="rgb(4, 4, 4)" fill-opacity="0.2653928555856917" stroke="rgb(0, 0, 0)" stroke-width="0.2"/><polygon points="0 0 0 50 50 50 50 0" transform="translate(525 325)" fill="rgb(228, 228, 228)" fill-opacity="0.9731356738050125" stroke="rgb(0, 0, 0)" stroke-width="0.2"/><polygon points="0 0 0 100 100 100" transform="translate(550 450)" fill="rgb(40, 250, 189)" fill-opacity="0.4632321360919631" stroke="rgb(0, 0, 0)" stroke-width="0.2"/><polygon points="0 0 0 100 100 100" transform="rotate(90 550 450) translate(550 450)" fill="rgb(53, 250, 189)" fill-opacity="0.2160845772581652" stroke="rgb(0, 0, 0)" stroke-width="0.2"/><polygon points="0 0 0 100 100 100" transform="rotate(180 550 450) translate(550 450)" fill="rgb(111, 250, 189)" fill-opacity="0.41757565090256765" stroke="rgb(0, 0, 0)" stroke-width="0.2"/><polygon points="0 0 0 50 50 50 50 0" transform="translate(575 475)" fill="rgb(147, 147, 147)" fill-opacity="0.5664102816780942" stroke="rgb(0, 0, 0)" stroke-width="0.2"/><polygon points="0 0 0 50 50 50 50 0" transform="translate(525 425)" fill="rgb(98, 98, 98)" fill-opacity="0.836881435195798" stroke="rgb(0, 0, 0)" stroke-width="0.2"/><polygon points="0 0 0 100 100 100" transform="translate(550 550)" fill="rgb(95, 250, 189)" fill-opacity="0.295100998222442" stroke="rgb(0, 0, 0)" stroke-width="0.2"/><polygon points="0 0 0 100 100 100" transform="rotate(90 550 550) translate(550 550)" fill="rgb(5, 250, 189)" fill-opacity="0.7990586082863866" stroke="rgb(0, 0, 0)" stroke-width="0.2"/><polygon points="0 0 0 100 100 100" transform="rotate(180 550 550) translate(550 550)" fill="rgb(115, 250, 189)" fill-opacity="0.32284845005130464" stroke="rgb(0, 0, 0)" stroke-width="0.2"/><polygon points="0 0 0 50 50 50 50 0" transform="translate(575 575)" fill="rgb(98, 98, 98)" fill-opacity="0.8518889969938888" stroke="rgb(0, 0, 0)" stroke-width="0.2"/><polygon points="0 0 0 50 50 50 50 0" transform="translate(525 525)" fill="rgb(227, 227, 227)" fill-opacity="0.42947466811962465" stroke="rgb(0, 0, 0)" stroke-width="0.2"/><rect x="0" y="0" width="600" height="600" fill="none" stroke="rgb(255, 255, 255)" stroke-width="50"/><rect x="25" y="25" width="550" height="550" fill="none" stroke="rgb(0, 0, 0)" stroke-width="0.5"/></svg>